<svg width="403" height="82" viewBox="0 0 403 82" version="1.1" xmlns="http://www.w3.org/2000/svg" xmlns:xlink="http://www.w3.org/1999/xlink">
<title>bigquery</title>
<desc>Created using Figma</desc>
<g id="Canvas" transform="translate(-5109 -7879)">
<clipPath id="clip-0" clip-rule="evenodd">
<path d="M 5109 7879L 5512 7879L 5512 7961L 5109 7961L 5109 7879Z" fill="#FFFFFF"/>
</clipPath>
<g id="bigquery" clip-path="url(#clip-0)">
<path d="M 5109 7879L 5512 7879L 5512 7961L 5109 7961L 5109 7879Z" fill="#FFFFFF"/>
<g id="Group">
<g id="Vector">
<use xlink:href="#path0_fill" transform="translate(5113 7883.4)" fill="#4386FA"/>
</g>
<g id="Vector">
<use xlink:href="#path1_fill" transform="translate(5142.35 7908.1)" fill="#4386FA"/>
</g>
<g id="Vector">
<use xlink:href="#path2_fill" transform="translate(5145.25 7909.6)" fill="#4386FA"/>
</g>
<g id="Vector" opacity="0.1">
<use xlink:href="#path2_fill" transform="translate(5145.25 7909.6)"/>
</g>
<g id="Vector">
<use xlink:href="#path3_fill" transform="translate(5138.46 7904.51)" fill="#FFFFFF"/>
</g>
<g id="Vector">
<use xlink:href="#path4_fill" transform="translate(5146.35 7918.6)" fill="#FFFFFF"/>
</g>
<g id="Vector">
<use xlink:href="#path5_fill" transform="translate(5152.05 7914.8)" fill="#FFFFFF"/>
</g>
<g id="Vector">
<use xlink:href="#path6_fill" transform="translate(5157.65 7920.6)" fill="#FFFFFF"/>
</g>
</g>
<g id="Group">
<g id="Vector">
<use xlink:href="#path7_fill" transform="translate(5217 7896.11)" fill="#767677"/>
</g>
<g id="Vector">
<use xlink:href="#path8_fill" transform="translate(5254.46 7895.53)" fill="#767677"/>
</g>
<g id="Vector">
<use xlink:href="#path9_fill" transform="translate(5255.62 7910.91)" fill="#767677"/>
</g>
<g id="Vector">
<use xlink:href="#path10_fill" transform="translate(5267.39 7909.75)" fill="#767677"/>
</g>
<g id="Vector">
<use xlink:href="#path11_fill" transform="translate(5318.77 7895)" fill="#767677"/>
</g>
<g id="Vector">
<use xlink:href="#path12_fill" transform="translate(5373.03 7910.91)" fill="#767677"/>
</g>
<g id="Vector">
<use xlink:href="#path13_fill" transform="translate(5406.8 7909.74)" fill="#767677"/>
</g>
<g id="Vector">
<use xlink:href="#path14_fill" transform="translate(5443.7 7910.1)" fill="#767677"/>
</g>
<g id="Vector">
<use xlink:href="#path15_fill" transform="translate(5464.94 7910.71)" fill="#767677"/>
</g>
</g>
</g>
</g>
<defs>
<path id="path0_fill" d="M 63.45 2.7C 62.55 1.1 60.75 -3.8147e-07 58.85 -3.8147e-07L 23.15 -3.8147e-07C 21.25 -3.8147e-07 19.45 1 18.55 2.7L 0.75 33.6C -0.25 35.2 -0.25 37.3 0.75 38.9L 18.55 69.7C 19.45 71.3 21.25 72.4 23.15 72.4L 58.75 72.4C 60.65 72.4 62.45 71.4 63.35 69.7L 81.15 38.9C 82.15 37.3 82.15 35.2 81.15 33.6L 63.45 2.7ZM 63.45 69.8C 62.45 71.4 60.75 72.5 58.85 72.5L 56.35 72.5C 50.45 66.7 35.65 51.7 32.05 48.1C 31.85 47.9 31.55 47.8 31.35 47.6C 24.85 42.6 23.65 33.2 28.65 26.7C 33.65 20.2 43.05 19 49.55 24C 50.55 24.8 51.45 25.7 52.25 26.7C 52.15 26.3 52.05 26.2 52.05 26.2L 75.15 49.2L 63.45 69.8Z"/>
<path id="path1_fill" d="M 11.2 22.4C 17.4 22.4 22.4 17.4 22.4 11.2C 22.4 5 17.4 -1.52588e-06 11.2 -1.52588e-06C 5 -1.52588e-06 -7.62939e-07 5 -7.62939e-07 11.2C -7.62939e-07 17.4 5 22.4 11.2 22.4ZM 15.3 12.4L 18.3 12.4L 18.3 15.1C 17.6 16.4 16.6 17.4 15.3 18.1L 15.3 12.4ZM 9.7 6.7L 12.7 6.7L 12.7 19.2C 11.7 19.4 10.7 19.4 9.7 19.2L 9.7 6.7ZM 4 10.6L 7 10.6L 7 18.3C 5.8 17.6 4.7 16.5 4 15.3L 4 10.6Z"/>
<path id="path2_fill" d="M 20.1 0.600001C 24.1 5.8 24.3 13.3 20.1 18.7C 20.2 18.7 20.2 18.8 20.3 18.9L 25.8 24.4C 26.1 24.7 26.1 25.3 25.8 25.6L 24.4 27C 24.1 27.3 23.5 27.3 23.2 27L 17.7 21.5C 17.6 21.4 17.6 21.4 17.6 21.3C 12.5 25.3 5.3 25.5 7.62939e-07 21.8C 3.5 25.4 18.3 40.3 24.2 46.1L 26.7 46.1C 28.6 46.1 30.4 45.1 31.3 43.4L 43.1 23L 20 -1.52588e-06C 19.9 0.0999985 20 0.300001 20.1 0.600001Z"/>
<path id="path3_fill" d="M 24.1859 26.486C 24.1859 26.586 24.286 26.586 24.286 26.686L 29.786 32.186C 30.086 32.486 30.686 32.486 30.986 32.186L 32.386 30.786C 32.686 30.486 32.686 29.886 32.386 29.586L 26.886 24.086C 26.7859 23.986 26.7859 23.986 26.6859 23.886C 30.8859 18.386 30.6859 10.986 26.6859 5.78595C 25.886 4.78595 24.986 3.88595 23.986 3.08595C 17.486 -1.91405 8.18595 -0.714049 3.08595 5.78595C -1.91405 12.286 -0.714048 21.586 5.78595 26.686C 5.98595 26.886 6.28595 26.986 6.48595 27.186C 11.986 30.686 19.0859 30.486 24.1859 26.486ZM 3.88595 14.786C 3.88595 8.58595 8.88595 3.58595 15.086 3.58595C 21.286 3.58595 26.286 8.58595 26.286 14.786C 26.286 20.986 21.286 25.986 15.086 25.986C 8.88595 25.986 3.88595 20.986 3.88595 14.786Z"/>
<path id="path4_fill" d="M 3 7.7L 3 -1.52588e-06L -7.62939e-07 -1.52588e-06L -7.62939e-07 4.6C 0.699999 6 1.8 7 3 7.7Z"/>
<path id="path5_fill" d="M 3 12.5L 3 -7.62939e-07L 0 -7.62939e-07L 0 12.5C 1 12.7 2 12.7 3 12.5Z"/>
<path id="path6_fill" d="M 3 2.7L 3 -1.52588e-06L -1.52588e-06 -1.52588e-06L -1.52588e-06 5.8C 1.3 5 2.3 3.9 3 2.7Z"/>
<path id="path7_fill" d="M 24.3311 22.6817L 24.3311 22.4895C 28.5793 20.5673 30.7035 17.2996 30.7035 12.6864C 30.7035 9.22646 29.3517 5.95876 26.6483 3.65214C 24.1379 1.15331 20.6621 -2.93301e-06 16.9931 -2.93301e-06L -5.89305e-06 -2.93301e-06L -5.89305e-06 46.709L 17.9586 46.709C 21.6276 46.9012 25.2966 45.3634 28 42.8646C 30.7035 40.3658 32.2483 36.9059 32.2483 33.2537C 32.2483 30.9471 31.4759 28.4483 30.1242 26.7183C 28.5793 24.7961 26.6483 23.4506 24.3311 22.6817ZM 6.17932 5.76654L 17.3793 5.76654C 19.3104 5.76654 21.2414 6.53541 22.5931 7.88093L 22.7862 8.07316C 25.4897 10.7642 25.2966 15.1852 22.5931 17.8763C 21.2414 19.2218 19.3104 19.9907 17.1862 19.9907L 6.17932 19.9907L 6.17932 5.76654ZM 26.069 33.4459C 26.069 37.6747 22.5931 41.1346 18.3448 41.1346L 6.17932 41.1346L 6.17932 25.7572L 17.9586 25.7572C 20.0828 25.7572 22.2069 26.5261 23.7517 28.0638C 25.2966 29.2171 26.069 31.3315 26.069 33.4459C 26.069 33.2537 26.069 33.2537 26.069 33.4459Z"/>
<path id="path8_fill" d="M 4.24828 -1.46651e-06C 1.93104 -1.46651e-06 -2.94653e-06 1.92218 -2.94653e-06 4.2288C -2.94653e-06 6.53541 1.93104 8.45758 4.24828 8.45758C 6.56553 8.45758 8.49656 6.53541 8.49656 4.2288C 8.49656 3.07549 8.11035 1.92218 7.33794 1.15331C 6.37242 0.384439 5.2138 -1.46651e-06 4.24828 -1.46651e-06Z"/>
<path id="path9_fill" d="M 5.98622 5.86603e-06L -5.89305e-06 5.86603e-06L -5.89305e-06 31.9082L 5.98622 31.9082L 5.98622 5.86603e-06Z"/>
<path id="path10_fill" d="M 26.4698 5.57432L 26.2767 5.57432C 25.118 3.84436 23.5732 2.49883 21.6422 1.53774C 19.7111 0.576654 17.587 -5.86603e-06 15.2698 -5.86603e-06C 11.0215 -5.86603e-06 7.15941 1.72997 4.45596 4.99767C 1.55941 8.26538 -0.178517 12.6864 0.0145867 17.1074C 0.0145867 21.5284 1.55941 25.9494 4.45596 29.2171C 7.15941 32.2926 11.2146 34.2148 15.2698 34.2148C 17.3939 34.2148 19.7111 33.6381 21.6422 32.677C 23.5732 31.716 25.118 30.3704 26.2767 28.6405L 26.4698 28.6405L 26.4698 31.716C 26.4698 35.1759 25.5043 37.8669 23.7663 39.7891C 21.8353 41.7113 19.3249 42.6724 16.0422 42.6724C 14.1112 42.6724 11.987 42.0957 10.4422 40.9424C 8.89734 39.7891 7.73873 38.2514 6.96631 36.5214L 1.17321 38.828C 1.55941 40.1736 2.33182 41.5191 3.29734 42.6724C 4.26286 43.8257 5.42147 44.7868 6.5801 45.5557C 7.93182 46.3245 9.28354 47.0934 10.8284 47.4778C 12.5663 47.8623 14.1111 48.2467 15.8491 48.2467C 20.8698 48.2467 24.7318 46.709 27.6284 43.8257C 30.525 40.9424 32.0698 36.9058 32.0698 31.716L 32.0698 1.15331L 26.2767 1.15331L 26.2767 5.57432L 26.4698 5.57432ZM 23.5732 25.3728C 21.8353 27.4872 19.1318 28.6405 16.2353 28.6405C 13.5318 28.6405 10.8284 27.4872 8.89735 25.3728C 6.96631 23.0662 5.80769 20.1829 6.00079 17.1074C 5.80769 14.0319 6.96631 11.1486 8.89735 8.84203C 10.6353 6.72764 13.3387 5.57432 16.2353 5.57432C 18.9387 5.57432 21.6422 6.72764 23.5732 8.84203C 27.4353 13.6475 27.4353 20.5673 23.5732 25.3728Z"/>
<path id="path11_fill" d="M 6.95173 7.064C 2.31724 11.6772 -1.17861e-05 17.4438 -1.17861e-05 24.3636C -1.17861e-05 31.2835 2.31724 37.05 6.95173 41.6632C 11.3931 46.2765 17.7655 48.9675 24.1379 48.7753C 28 48.7753 31.8621 47.8142 35.5311 46.0843L 38.8138 50.8897L 43.6414 47.8142L 40.3587 42.8166C 42.869 40.5099 44.9931 37.6267 46.3448 34.5512C 47.6966 31.2835 48.469 27.8235 48.469 24.3636C 48.6621 17.8282 46.1517 11.6772 41.5173 7.064C 32.0552 -2.35468 16.6069 -2.35468 6.95173 7.064ZM 36.8828 38.0111L 31.4759 29.7457L 26.6483 33.0134L 32.2483 41.2788C 29.738 42.4321 27.0345 43.201 24.3311 43.201C 19.5035 43.3932 14.869 41.471 11.3931 37.8189C 7.91725 34.359 6.17933 29.7457 6.17933 24.3636C 6.17933 18.9815 7.91725 14.5605 11.3931 10.9084C 14.6759 7.44844 19.5035 5.52627 24.3311 5.52627C 29.1586 5.33405 33.7931 7.25622 37.0759 10.9084C 40.5518 14.3683 42.2897 18.7893 42.2897 24.3636C 42.2897 30.1302 40.3586 34.5512 36.8828 38.0111Z"/>
<path id="path12_fill" d="M 22.4 5.86603e-06L 22.4 17.6841C 22.4 20.1829 21.6276 22.6817 19.8897 24.6039C 18.5379 26.5261 16.2207 27.4872 13.9035 27.4872C 8.68965 27.4872 6.17933 24.7961 5.98622 19.6062L 5.98622 5.86603e-06L 0 5.86603e-06L 0 20.1829C 0 24.4117 0.96553 27.4872 3.08967 29.7938C 5.21381 32.1004 8.30346 33.0615 12.1655 33.0615C 14.2897 33.0615 16.2207 32.4848 18.1517 31.5237C 19.8897 30.5627 21.4345 29.2171 22.4 27.6794L 22.5931 27.6794L 22.5931 32.1004L 28.3862 32.1004L 28.3862 5.86603e-06L 22.4 5.86603e-06Z"/>
<path id="path13_fill" d="M 15.8506 0.0131916C 11.6023 -0.179026 7.35407 1.74315 4.45751 4.81864C 1.36786 8.08635 -0.176978 12.5074 0.0161252 16.9284C 0.0161252 21.926 1.56094 25.9626 4.6506 29.2303C 7.74026 32.498 11.9885 34.228 16.4299 34.0358C 19.5196 34.0358 22.4161 33.2669 25.1196 31.7292C 27.6299 30.1914 29.7541 28.077 31.1058 25.386L 25.6989 22.6949C 23.5748 26.5393 20.4851 28.4615 16.623 28.4615C 13.9196 28.4615 11.4092 27.5004 9.47819 25.5782C 7.35405 23.656 6.19545 20.7727 6.38855 18.0817L 31.6851 18.0817L 31.6851 17.505C 31.6851 11.9307 30.3334 7.70191 27.4368 4.62643C 24.3472 1.55094 20.6782 0.0131916 15.8506 0.0131916ZM 6.58163 13.2762C 6.96784 11.1618 8.12649 9.04744 9.86442 7.70191C 11.4092 6.35638 13.5334 5.58752 15.6575 5.58752C 17.9748 5.3953 20.4851 6.16417 22.223 7.70191C 23.7679 9.04744 24.7334 11.1618 24.9265 13.2762L 6.58163 13.2762Z"/>
<path id="path14_fill" d="M 9.84828 1.57416C 8.11034 2.53525 6.75862 4.073 5.9862 5.99518L 5.79312 5.99518L 5.79312 0.805303L 1.17861e-05 0.805303L 1.17861e-05 32.9057L 5.9862 32.9057L 5.9862 15.2217C 5.9862 12.915 6.95173 10.6084 8.49656 8.87845C 10.0414 7.14849 12.1655 6.1874 14.4828 6.1874C 15.6414 6.1874 16.8 6.18741 17.9586 6.57184L 19.8897 0.805303C 18.5379 0.228649 16.9931 0.0364283 15.4483 0.0364283C 13.5173 -0.15579 11.5862 0.420855 9.84828 1.57416Z"/>
<path id="path15_fill" d="M 16.2207 23.0662L 16.0276 23.0662L 6.56552 -5.86603e-06L 1.17861e-05 -5.86603e-06L 13.131 30.1782L 5.79312 46.3245L 11.9724 46.3245L 32.0552 0.192224L 32.0552 -5.86603e-06L 25.4897 -5.86603e-06L 16.2207 23.0662Z"/>
</defs>
</svg>
