<?xml version="1.0" encoding="UTF-8"?>
<!DOCTYPE svg PUBLIC "-//W3C//DTD SVG 1.1//EN" "http://www.w3.org/Graphics/SVG/1.1/DTD/svg11.dtd">
<svg version="1.2" width="150mm" height="50mm" viewBox="0 0 15000 5000" preserveAspectRatio="xMidYMid" fill-rule="evenodd" stroke-width="28.222" stroke-linejoin="round" xmlns="http://www.w3.org/2000/svg" xmlns:ooo="http://xml.openoffice.org/svg/export" xmlns:xlink="http://www.w3.org/1999/xlink" xmlns:presentation="http://sun.com/xmlns/staroffice/presentation" xmlns:smil="http://www.w3.org/2001/SMIL20/" xmlns:anim="urn:oasis:names:tc:opendocument:xmlns:animation:1.0" xml:space="preserve">
 <defs class="ClipPathGroup">
  <clipPath id="presentation_clip_path" clipPathUnits="userSpaceOnUse">
   <rect x="0" y="0" width="15000" height="5000"/>
  </clipPath>
  <clipPath id="presentation_clip_path_shrink" clipPathUnits="userSpaceOnUse">
   <rect x="15" y="5" width="14970" height="4990"/>
  </clipPath>
 </defs>
 <defs class="TextShapeIndex">
  <g ooo:slide="id1" ooo:id-list="id3 id4 id5 id6 id7 id8 id9 id10 id11 id12 id13 id14 id15 id16"/>
 </defs>
 <defs class="EmbeddedBulletChars">
  <g id="bullet-char-template-57356" transform="scale(0.00048828125,-0.00048828125)">
   <path d="M 580,1141 L 1163,571 580,0 -4,571 580,1141 Z"/>
  </g>
  <g id="bullet-char-template-57354" transform="scale(0.00048828125,-0.00048828125)">
   <path d="M 8,1128 L 1137,1128 1137,0 8,0 8,1128 Z"/>
  </g>
  <g id="bullet-char-template-10146" transform="scale(0.00048828125,-0.00048828125)">
   <path d="M 174,0 L 602,739 174,1481 1456,739 174,0 Z M 1358,739 L 309,1346 659,739 1358,739 Z"/>
  </g>
  <g id="bullet-char-template-10132" transform="scale(0.00048828125,-0.00048828125)">
   <path d="M 2015,739 L 1276,0 717,0 1260,543 174,543 174,936 1260,936 717,1481 1274,1481 2015,739 Z"/>
  </g>
  <g id="bullet-char-template-10007" transform="scale(0.00048828125,-0.00048828125)">
   <path d="M 0,-2 C -7,14 -16,27 -25,37 L 356,567 C 262,823 215,952 215,954 215,979 228,992 255,992 264,992 276,990 289,987 310,991 331,999 354,1012 L 381,999 492,748 772,1049 836,1024 860,1049 C 881,1039 901,1025 922,1006 886,937 835,863 770,784 769,783 710,716 594,584 L 774,223 C 774,196 753,168 711,139 L 727,119 C 717,90 699,76 672,76 641,76 570,178 457,381 L 164,-76 C 142,-110 111,-127 72,-127 30,-127 9,-110 8,-76 1,-67 -2,-52 -2,-32 -2,-23 -1,-13 0,-2 Z"/>
  </g>
  <g id="bullet-char-template-10004" transform="scale(0.00048828125,-0.00048828125)">
   <path d="M 285,-33 C 182,-33 111,30 74,156 52,228 41,333 41,471 41,549 55,616 82,672 116,743 169,778 240,778 293,778 328,747 346,684 L 369,508 C 377,444 397,411 428,410 L 1163,1116 C 1174,1127 1196,1133 1229,1133 1271,1133 1292,1118 1292,1087 L 1292,965 C 1292,929 1282,901 1262,881 L 442,47 C 390,-6 338,-33 285,-33 Z"/>
  </g>
  <g id="bullet-char-template-9679" transform="scale(0.00048828125,-0.00048828125)">
   <path d="M 813,0 C 632,0 489,54 383,161 276,268 223,411 223,592 223,773 276,916 383,1023 489,1130 632,1184 813,1184 992,1184 1136,1130 1245,1023 1353,916 1407,772 1407,592 1407,412 1353,268 1245,161 1136,54 992,0 813,0 Z"/>
  </g>
  <g id="bullet-char-template-8226" transform="scale(0.00048828125,-0.00048828125)">
   <path d="M 346,457 C 273,457 209,483 155,535 101,586 74,649 74,723 74,796 101,859 155,911 209,963 273,989 346,989 419,989 480,963 531,910 582,859 608,796 608,723 608,648 583,586 532,535 482,483 420,457 346,457 Z"/>
  </g>
  <g id="bullet-char-template-8211" transform="scale(0.00048828125,-0.00048828125)">
   <path d="M -4,459 L 1135,459 1135,606 -4,606 -4,459 Z"/>
  </g>
  <g id="bullet-char-template-61548" transform="scale(0.00048828125,-0.00048828125)">
   <path d="M 173,740 C 173,903 231,1043 346,1159 462,1274 601,1332 765,1332 928,1332 1067,1274 1183,1159 1299,1043 1357,903 1357,740 1357,577 1299,437 1183,322 1067,206 928,148 765,148 601,148 462,206 346,322 231,437 173,577 173,740 Z"/>
  </g>
 </defs>
 <defs class="TextEmbeddedBitmaps"/>
 <g>
  <g id="id2" class="Master_Slide">
   <g id="bg-id2" class="Background"/>
   <g id="bo-id2" class="BackgroundObjects"/>
  </g>
 </g>
 <g class="SlideGroup">
  <g>
   <g id="container-id1">
    <g id="id1" class="Slide" clip-path="url(#presentation_clip_path)">
     <g class="Page">
      <g class="com.sun.star.drawing.ClosedBezierShape">
       <g id="id3">
        <rect class="BoundingBox" stroke="none" fill="none" x="4823" y="1448" width="1208" height="1613"/>
        <path fill="rgb(225,0,152)" stroke="none" d="M 5425,1582 C 5358,1582 5297,1591 5242,1609 5188,1626 5141,1653 5101,1692 5062,1729 5031,1778 5007,1838 4984,1897 4972,1969 4969,2052 4964,2187 4964,2321 4969,2455 4972,2539 4984,2611 5007,2670 5031,2730 5062,2779 5101,2818 5141,2855 5188,2883 5242,2901 5297,2917 5358,2926 5425,2926 5491,2926 5552,2917 5609,2899 5666,2879 5714,2851 5755,2814 5796,2775 5829,2726 5853,2666 5877,2606 5889,2536 5889,2455 L 5889,2341 5499,2341 C 5466,2341 5450,2324 5450,2290 L 5450,2258 C 5450,2224 5466,2207 5499,2207 L 5978,2207 C 6013,2207 6030,2224 6030,2258 L 6030,2455 C 6030,2545 6017,2627 5990,2702 5963,2775 5923,2838 5871,2892 5820,2946 5757,2988 5681,3017 5606,3046 5521,3060 5425,3060 5328,3060 5243,3046 5170,3017 5097,2988 5035,2946 4984,2894 4935,2842 4897,2780 4870,2708 4845,2635 4830,2555 4827,2467 4824,2399 4823,2329 4823,2254 4823,2179 4824,2108 4827,2041 4830,1953 4845,1873 4872,1802 4899,1729 4937,1666 4986,1614 5037,1561 5099,1521 5172,1493 5245,1463 5330,1448 5425,1448 5528,1448 5616,1464 5690,1495 5763,1526 5822,1564 5869,1607 5915,1650 5949,1696 5972,1744 5994,1791 6006,1831 6008,1862 6009,1876 6005,1887 5996,1896 5987,1903 5975,1907 5961,1907 L 5911,1907 C 5898,1907 5888,1904 5882,1898 5876,1891 5870,1879 5864,1862 5852,1828 5835,1794 5813,1761 5792,1727 5763,1697 5728,1672 5692,1645 5649,1623 5600,1607 5551,1591 5493,1582 5425,1582 Z"/>
       </g>
      </g>
      <g class="com.sun.star.drawing.ClosedBezierShape">
       <g id="id4">
        <rect class="BoundingBox" stroke="none" fill="none" x="6345" y="1873" width="575" height="1165"/>
        <path fill="rgb(225,0,152)" stroke="none" d="M 6482,2028 C 6536,1925 6637,1873 6787,1873 L 6869,1873 C 6902,1873 6919,1889 6919,1922 L 6919,1954 C 6919,1986 6902,2003 6869,2003 L 6773,2003 C 6683,2003 6612,2029 6560,2081 6508,2134 6482,2204 6482,2294 L 6482,2988 C 6482,3003 6476,3015 6466,3024 6457,3033 6445,3037 6430,3037 L 6394,3037 C 6361,3037 6345,3021 6345,2988 L 6345,1925 C 6345,1910 6349,1898 6358,1889 6367,1878 6379,1873 6394,1873 L 6430,1873 C 6445,1873 6457,1878 6466,1889 6476,1898 6482,1910 6482,1925 L 6482,2028 Z"/>
       </g>
      </g>
      <g class="com.sun.star.drawing.ClosedBezierShape">
       <g id="id5">
        <rect class="BoundingBox" stroke="none" fill="none" x="7018" y="1851" width="935" height="1210"/>
        <path fill="rgb(225,0,152)" stroke="none" d="M 7865,3038 C 7832,3038 7815,3021 7815,2989 L 7815,2883 C 7802,2904 7784,2925 7762,2946 7741,2967 7715,2986 7683,3002 7652,3018 7615,3032 7571,3042 7528,3054 7477,3060 7419,3060 7365,3060 7314,3052 7264,3036 7217,3018 7174,2994 7137,2964 7101,2934 7072,2899 7049,2859 7028,2818 7018,2774 7018,2727 7018,2676 7028,2630 7049,2590 7072,2550 7102,2515 7141,2485 7180,2453 7226,2428 7280,2409 7335,2388 7396,2373 7461,2364 L 7815,2315 7815,2236 C 7815,2156 7791,2093 7741,2048 7694,2003 7617,1981 7511,1981 7427,1981 7362,1997 7316,2030 7271,2061 7243,2096 7231,2133 7225,2151 7217,2164 7208,2171 7201,2177 7190,2180 7177,2180 L 7146,2180 C 7132,2180 7120,2176 7110,2167 7101,2156 7096,2144 7096,2131 7096,2110 7104,2084 7119,2053 7134,2021 7158,1991 7190,1961 7225,1931 7268,1905 7320,1885 7373,1862 7436,1851 7511,1851 7599,1851 7671,1863 7728,1887 7786,1911 7832,1942 7865,1981 7897,2018 7920,2060 7932,2106 7945,2153 7952,2198 7952,2243 L 7952,2989 C 7952,3021 7936,3038 7903,3038 L 7865,3038 Z M 7441,2930 C 7492,2930 7540,2922 7585,2906 7631,2888 7671,2862 7706,2827 7740,2793 7767,2750 7786,2697 7806,2645 7815,2584 7815,2514 L 7815,2438 7526,2478 C 7279,2512 7155,2591 7155,2715 7155,2753 7163,2785 7179,2812 7197,2839 7220,2861 7246,2879 7273,2897 7304,2910 7338,2919 7373,2927 7407,2930 7441,2930 Z"/>
       </g>
      </g>
      <g class="com.sun.star.drawing.ClosedBezierShape">
       <g id="id6">
        <rect class="BoundingBox" stroke="none" fill="none" x="8305" y="1851" width="996" height="1613"/>
        <path fill="rgb(225,0,152)" stroke="none" d="M 8818,3060 C 8724,3060 8647,3043 8587,3008 8527,2974 8479,2932 8442,2883 L 8442,3414 C 8442,3446 8425,3463 8392,3463 L 8354,3463 C 8321,3463 8305,3446 8305,3414 L 8305,1923 C 8305,1890 8321,1873 8354,1873 L 8392,1873 C 8425,1873 8442,1890 8442,1923 L 8442,2028 C 8479,1977 8527,1935 8587,1902 8647,1868 8724,1851 8818,1851 8904,1851 8978,1867 9037,1898 9099,1928 9148,1968 9185,2019 9223,2068 9249,2125 9266,2189 9284,2252 9294,2316 9297,2382 9299,2404 9299,2429 9299,2455 9299,2482 9299,2507 9297,2529 9294,2595 9284,2660 9266,2724 9249,2787 9223,2844 9185,2894 9148,2944 9099,2984 9037,3015 8978,3045 8904,3060 8818,3060 Z M 8442,2375 C 8440,2397 8439,2426 8439,2462 8439,2498 8440,2527 8442,2549 8443,2594 8451,2640 8464,2686 8479,2731 8501,2771 8531,2807 8561,2843 8598,2873 8643,2897 8688,2919 8742,2930 8804,2930 8870,2930 8925,2919 8968,2897 9013,2874 9049,2844 9075,2807 9104,2768 9124,2724 9136,2675 9149,2624 9158,2572 9161,2518 9162,2476 9162,2435 9161,2393 9158,2339 9149,2288 9136,2238 9124,2189 9104,2146 9075,2108 9049,2070 9013,2039 8968,2017 8925,1993 8870,1981 8804,1981 8740,1981 8686,1993 8641,2017 8596,2041 8559,2072 8529,2111 8501,2148 8479,2190 8464,2236 8451,2282 8443,2329 8442,2375 Z"/>
       </g>
      </g>
      <g class="com.sun.star.drawing.ClosedBezierShape">
       <g id="id7">
        <rect class="BoundingBox" stroke="none" fill="none" x="9603" y="1448" width="971" height="1591"/>
        <path fill="rgb(225,0,152)" stroke="none" d="M 9740,2028 C 9780,1976 9828,1933 9885,1900 9942,1867 10019,1851 10116,1851 10192,1851 10258,1864 10315,1889 10372,1914 10419,1949 10456,1994 10495,2039 10524,2092 10544,2153 10563,2214 10573,2281 10573,2352 L 10573,2988 C 10573,3021 10556,3038 10524,3038 L 10485,3038 C 10453,3038 10436,3021 10436,2988 L 10436,2364 C 10436,2244 10407,2151 10349,2084 10291,2015 10205,1981 10093,1981 9986,1981 9900,2014 9836,2082 9772,2149 9740,2243 9740,2364 L 9740,2988 C 9740,3021 9723,3038 9690,3038 L 9652,3038 C 9619,3038 9603,3021 9603,2988 L 9603,1497 C 9603,1464 9619,1448 9652,1448 L 9690,1448 C 9723,1448 9740,1464 9740,1497 L 9740,2028 Z"/>
       </g>
      </g>
      <g class="com.sun.star.drawing.ClosedBezierShape">
       <g id="id8">
        <rect class="BoundingBox" stroke="none" fill="none" x="10889" y="1448" width="1192" height="1736"/>
        <path fill="rgb(225,0,152)" stroke="none" d="M 11485,1448 C 11571,1448 11650,1461 11722,1486 11794,1511 11855,1550 11906,1602 11958,1653 11998,1717 12027,1795 12056,1871 12073,1961 12076,2066 12079,2133 12080,2196 12080,2254 12080,2312 12079,2375 12076,2442 12068,2655 12014,2812 11912,2912 L 12056,3114 C 12057,3117 12059,3120 12060,3123 12062,3126 12062,3131 12062,3138 12062,3150 12058,3161 12049,3170 12040,3179 12030,3183 12018,3183 L 11968,3183 C 11952,3183 11938,3176 11926,3163 11914,3151 11904,3140 11897,3131 L 11798,2995 C 11709,3038 11604,3060 11485,3060 11298,3060 11154,3010 11052,2910 10952,2810 10899,2654 10893,2442 10890,2375 10889,2312 10889,2254 10889,2196 10890,2133 10893,2066 10896,1961 10912,1871 10941,1795 10970,1717 11011,1653 11061,1602 11114,1550 11175,1511 11245,1486 11317,1461 11397,1448 11485,1448 Z M 11485,1582 C 11422,1582 11364,1592 11310,1611 11256,1629 11209,1658 11169,1699 11129,1739 11097,1791 11073,1853 11050,1916 11038,1991 11035,2077 11033,2111 11032,2143 11030,2171 11030,2199 11030,2227 11030,2254 11030,2281 11030,2309 11030,2339 11032,2367 11033,2398 11035,2431 11038,2519 11050,2594 11073,2657 11097,2718 11128,2769 11167,2809 11207,2849 11254,2879 11308,2899 11361,2917 11420,2926 11485,2926 11549,2926 11608,2917 11662,2899 11715,2879 11762,2849 11800,2809 11841,2769 11872,2718 11894,2657 11918,2594 11932,2519 11935,2431 11936,2398 11937,2367 11937,2339 11937,2309 11937,2281 11937,2254 11937,2227 11937,2199 11937,2171 11937,2143 11936,2111 11935,2077 11932,1991 11918,1916 11894,1853 11872,1791 11841,1739 11800,1699 11760,1658 11713,1629 11659,1611 11606,1592 11547,1582 11485,1582 Z"/>
       </g>
      </g>
      <g class="com.sun.star.drawing.ClosedBezierShape">
       <g id="id9">
        <rect class="BoundingBox" stroke="none" fill="none" x="12435" y="1470" width="966" height="1569"/>
        <path fill="rgb(225,0,152)" stroke="none" d="M 12576,2903 L 13349,2903 C 13383,2903 13400,2920 13400,2954 L 13400,2988 C 13400,3021 13383,3037 13349,3037 L 12484,3037 C 12451,3037 12435,3021 12435,2988 L 12435,1519 C 12435,1486 12451,1470 12484,1470 L 12527,1470 C 12560,1470 12576,1486 12576,1519 L 12576,2903 Z"/>
       </g>
      </g>
      <g class="com.sun.star.drawing.PolyPolygonShape">
       <g id="id10">
        <rect class="BoundingBox" stroke="none" fill="none" x="604" y="533" width="1834" height="3001"/>
        <path fill="rgb(225,0,152)" stroke="none" d="M 755,3533 L 604,3446 2286,534 2437,621 755,3533 Z"/>
       </g>
      </g>
      <g class="com.sun.star.drawing.PolyPolygonShape">
       <g id="id11">
        <rect class="BoundingBox" stroke="none" fill="none" x="570" y="3212" width="3363" height="176"/>
        <path fill="rgb(225,0,152)" stroke="none" d="M 570,3212 L 3932,3212 3932,3387 570,3387 570,3212 Z"/>
       </g>
      </g>
      <g class="com.sun.star.drawing.PolyPolygonShape">
       <g id="id12">
        <rect class="BoundingBox" stroke="none" fill="none" x="636" y="628" width="3232" height="3655"/>
        <path fill="rgb(225,0,152)" stroke="none" d="M 2318,4282 L 636,3311 723,3160 2405,4131 2318,4282 Z M 3779,1751 L 2097,780 2184,629 3866,1600 3779,1751 Z"/>
       </g>
      </g>
      <g class="com.sun.star.drawing.PolyPolygonShape">
       <g id="id13">
        <rect class="BoundingBox" stroke="none" fill="none" x="637" y="628" width="1770" height="1125"/>
        <path fill="rgb(225,0,152)" stroke="none" d="M 724,1752 L 637,1601 2319,629 2406,780 724,1752 Z"/>
       </g>
      </g>
      <g class="com.sun.star.drawing.PolyPolygonShape">
       <g id="id14">
        <rect class="BoundingBox" stroke="none" fill="none" x="703" y="533" width="3197" height="3001"/>
        <path fill="rgb(225,0,152)" stroke="none" d="M 3748,3533 L 2067,621 2218,534 3899,3446 3748,3533 Z M 703,1484 L 877,1484 877,3426 703,3426 703,1484 Z M 3626,1484 L 3800,1484 3800,3426 3626,3426 3626,1484 Z"/>
       </g>
      </g>
      <g class="com.sun.star.drawing.PolyPolygonShape">
       <g id="id15">
        <rect class="BoundingBox" stroke="none" fill="none" x="2211" y="3231" width="1541" height="978"/>
        <path fill="rgb(225,0,152)" stroke="none" d="M 2288,4208 L 2212,4076 3675,3231 3751,3363 2288,4208 Z"/>
       </g>
      </g>
      <g class="com.sun.star.drawing.ClosedBezierShape">
       <g id="id16">
        <rect class="BoundingBox" stroke="none" fill="none" x="422" y="400" width="3661" height="4112"/>
        <path fill="rgb(225,0,152)" stroke="none" d="M 4031,3483 C 3931,3658 3706,3718 3531,3617 3355,3517 3296,3292 3396,3117 3497,2941 3722,2881 3897,2982 4073,3084 4133,3308 4031,3483 Z M 1107,1794 C 1006,1969 781,2029 606,1928 431,1828 371,1603 472,1428 573,1252 797,1193 973,1293 1148,1395 1208,1619 1107,1794 Z M 473,3483 C 372,3308 432,3084 607,2982 783,2881 1006,2941 1108,3117 1209,3292 1149,3515 974,3617 797,3718 574,3658 473,3483 Z M 3397,1794 C 3297,1619 3356,1395 3532,1293 3707,1193 3931,1252 4032,1428 4133,1603 4073,1827 3898,1928 3723,2029 3498,1969 3397,1794 Z M 2252,4511 C 2050,4511 1886,4347 1886,4144 1886,3942 2050,3778 2252,3778 2455,3778 2618,3942 2618,4144 2618,4346 2455,4511 2252,4511 Z M 2252,1133 C 2050,1133 1886,969 1886,766 1886,564 2050,400 2252,400 2455,400 2618,564 2618,766 2618,969 2455,1133 2252,1133 Z"/>
       </g>
      </g>
     </g>
    </g>
   </g>
  </g>
 </g>
</svg>