<svg width="503" height="106" viewBox="0 0 503 106" version="1.1" xmlns="http://www.w3.org/2000/svg" xmlns:xlink="http://www.w3.org/1999/xlink">
<title>mysql</title>
<desc>Created using Figma</desc>
<g id="Canvas" transform="translate(-5109 -8003)">
<clipPath id="clip-0" clip-rule="evenodd">
<path d="M 5109 8003L 5612 8003L 5612 8109L 5109 8109L 5109 8003Z" fill="#FFFFFF"/>
</clipPath>
<g id="mysql" clip-path="url(#clip-0)">
<path d="M 5109 8003L 5612 8003L 5612 8109L 5109 8109L 5109 8003Z" fill="#FFFFFF"/>
<g id="Group">
<g id="Group">
<g id="Vector">
<use xlink:href="#path0_fill" transform="translate(5217 8016)" fill="#00618A"/>
</g>
</g>
<g id="Group">
<g id="Vector">
<use xlink:href="#path1_fill" transform="translate(5322.49 8036.15)" fill="#00618A"/>
</g>
</g>
<g id="Group">
<g id="Vector">
<use xlink:href="#path2_fill" transform="translate(5397.66 8017.25)" fill="#E48E00"/>
</g>
</g>
<g id="Group">
<g id="Vector">
<use xlink:href="#path3_fill" transform="translate(5542.77 8017.25)" fill="#E48E00"/>
</g>
</g>
<g id="Group">
<g id="Vector">
<use xlink:href="#path4_fill" transform="translate(5466.69 8017.36)" fill="#E48E00"/>
</g>
</g>
</g>
<g id="Group">
<g id="Group">
<g id="Vector">
<use xlink:href="#path5_fill" transform="translate(5115 8007)" fill="#00618A"/>
</g>
</g>
<g id="Group">
<g id="Vector">
<use xlink:href="#path6_fill" transform="translate(5134.65 8023.64)" fill="#00618A"/>
</g>
</g>
</g>
</g>
</g>
<defs>
<path id="path0_fill" d="M 0 63.9959L 13.5865 63.9959L 13.5865 10.31L 34.6201 57.1114C 37.1019 62.7764 40.4991 64.7804 47.1611 64.7804C 53.8241 64.7804 57.09 62.7764 59.5728 57.1114L 80.6055 10.31L 80.6055 63.9959L 94.193 63.9959L 94.193 10.3978C 94.193 5.16908 92.1018 2.64099 87.7914 1.33459C 77.4708 -1.8901 70.5464 0.898423 67.4106 7.87079L 46.7694 54.0604L 26.7814 7.87079C 23.7768 0.898423 16.7221 -1.8901 6.40166 1.33459C 2.09015 2.64099 0 5.16908 0 10.3978L 0 63.9959Z"/>
<path id="path1_fill" d="M 1.00504e-10 0.143979L 13.5825 0.143979L 13.5825 29.721C 13.4555 31.328 14.0977 35.099 21.5406 35.2165C 25.3378 35.2758 50.8469 35.2165 51.085 35.2165L 51.085 0L 64.6992 0C 64.7616 0 64.6854 48.0253 64.6865 48.2296C 64.7616 60.074 49.9995 62.6465 43.1956 62.8456L 0.295179 62.8456L 0.295179 53.6997C 0.370296 53.6997 43.1638 53.7082 43.2717 53.6976C 52.016 52.7734 50.9834 48.4244 50.9823 46.9603L 50.9823 43.3947L 22.1046 43.3947C 8.66916 43.2708 0.113205 37.4037 0.00740592 30.6537C -0.00211598 30.028 0.297295 0.439346 1.00504e-10 0.143979Z"/>
<path id="path2_fill" d="M 0 62.7482L 39.0609 62.7482C 43.6336 62.7482 48.0761 61.7901 51.6034 60.1333C 57.4816 57.4326 60.3561 53.7728 60.3561 48.9781L 60.3561 39.0436C 60.3561 35.1212 57.0901 31.4604 50.6882 29.0212C 47.291 27.7127 43.1109 27.0161 39.0609 27.0161L 22.5997 27.0161C 17.114 27.0161 14.5008 25.3603 13.848 21.7005C 13.7168 21.2644 13.7168 20.915 13.7168 20.4799L 13.7168 14.293C 13.7168 13.9437 13.7168 13.5943 13.848 13.1592C 14.5008 10.3707 15.9386 9.58516 20.7715 9.15005C 21.164 9.15005 21.6856 9.06218 22.0781 9.06218L 60.8788 9.06218L 60.8788 0L 22.7309 0C 17.2442 0 14.3696 0.348301 11.7574 1.13171C 3.65747 3.65981 0.130133 7.66897 0.130133 14.6413L 0.130133 22.5718C 0.130133 28.6729 7.05467 33.9016 18.6809 35.1212C 19.9886 35.208 21.2941 35.2948 22.5997 35.2948L 36.709 35.2948C 37.2327 35.2948 37.7554 35.2948 38.1468 35.3827C 42.4581 35.7321 44.2863 36.5155 45.594 38.0844C 46.3769 38.8678 46.6382 39.6534 46.6382 40.5247L 46.6382 48.4551C 46.6382 49.4143 45.9855 50.6349 44.6799 51.6798C 43.5034 52.7258 41.544 53.4234 38.9308 53.5981C 38.4082 53.5981 38.0167 53.6849 37.4941 53.6849L 0 53.6849L 0 62.7482Z"/>
<path id="path3_fill" d="M 0 46.974C 0 56.2988 6.92348 61.5286 20.9027 62.5745C 22.2082 62.6613 23.5159 62.7482 24.8215 62.7482L 60.226 62.7482L 60.226 53.6849L 24.5601 53.6849C 16.5914 53.6849 13.5867 51.6798 13.5867 46.8872L 13.5867 0L 0 0L 0 46.974Z"/>
<path id="path4_fill" d="M 0 47.334L 0 15.0214C 0 6.81251 5.76075 1.83361 17.1489 0.26149C 18.3275 0.0878692 19.6373 0 20.8149 0L 46.6044 0C 47.9131 0 49.0928 0.0878692 50.4015 0.26149C 61.7908 1.83361 67.5505 6.81251 67.5505 15.0214L 67.5505 47.334C 67.5505 53.994 65.1044 57.5586 59.4664 59.8813L 72.8499 71.9691L 57.0743 71.9691L 46.2468 62.1892L 35.3463 62.8805L 20.8149 62.8805C 18.3275 62.8805 15.7101 62.5301 12.8292 61.7445C 4.18963 59.3869 0 54.8452 0 47.334ZM 14.6648 46.5485C 14.6648 46.9857 14.7949 47.4219 14.9261 47.9459C 15.7111 51.701 19.2459 53.7971 24.613 53.7971L 36.9566 53.7971L 25.6181 43.5545L 41.3938 43.5545L 51.2828 52.4876C 53.1047 51.5157 54.3044 50.0293 54.7234 48.1206C 54.8535 47.6844 54.8535 47.2472 54.8535 46.811L 54.8535 15.808C 54.8535 15.4586 54.8535 15.0214 54.7234 14.5842C 53.9373 11.0916 50.4026 9.08335 45.1666 9.08335L 24.613 9.08335C 18.592 9.08335 14.6648 11.7035 14.6648 15.808L 14.6648 46.5485Z"/>
<path id="path5_fill" d="M 90.6291 75.07C 85.2608 74.9238 81.1601 75.4253 77.6544 76.9106C 76.6581 77.3328 75.0696 77.3437 74.907 78.5981C 75.4545 79.1747 75.5395 80.0355 75.9747 80.7447C 76.8118 82.1056 78.225 83.9291 79.4858 84.8855C 80.8636 85.9301 82.2835 87.0479 83.7606 87.9524C 86.3876 89.562 89.3207 90.4809 91.8505 92.0933C 93.3411 93.0436 94.8223 94.2406 96.2769 95.3132C 96.9957 95.8433 97.4792 96.668 98.4136 97C 98.4136 96.9494 98.4136 96.8982 98.4136 96.847C 97.9226 96.2191 97.7961 95.3555 97.3453 94.6997C 96.6843 94.0356 96.0226 93.3709 95.3609 92.7061C 93.4207 90.1188 90.9576 87.8465 88.3394 85.9588C 86.2516 84.4531 81.5783 82.4192 80.7072 79.9781C 80.6562 79.9269 80.6058 79.8756 80.5542 79.8244C 82.0346 79.657 83.7681 79.1187 85.1343 78.7511C 87.4295 78.1328 89.4805 78.2927 91.8505 77.6778C 92.9188 77.371 93.9872 77.0636 95.0562 76.7575C 95.0562 76.5526 95.0562 76.349 95.0562 76.144C 93.858 74.9088 93.0038 73.2746 91.6975 72.1569C 88.2795 69.2328 84.5488 66.3114 80.7072 63.8754C 78.5766 62.5243 75.9434 61.6463 73.6857 60.5014C 72.926 60.1165 71.5918 59.9163 71.0899 59.2745C 69.9039 57.7553 69.2578 55.8298 68.3432 54.0604C 66.4268 50.3536 64.5451 46.3051 62.8477 42.4054C 61.6896 39.746 60.9334 37.1232 59.4896 34.7374C 52.5585 23.2891 45.0977 16.3791 33.5403 9.58712C 31.0812 8.14271 28.1203 7.57224 24.9914 6.827C 23.313 6.72493 21.6333 6.62218 19.9542 6.52011C 18.9294 6.08976 17.8631 4.83008 16.9015 4.21965C 13.0728 1.78974 3.25219 -3.49571 0.416382 3.45303C -1.37419 7.83909 3.09238 12.1191 4.68982 14.3415C 5.81122 15.9007 7.2468 17.6487 8.0479 19.4021C 8.57494 20.5544 8.66607 21.7099 9.11694 22.9295C 10.2268 25.9332 11.1918 29.2011 12.6274 31.9772C 13.353 33.3817 14.1527 34.8615 15.0701 36.1178C 15.6325 36.8884 16.5961 37.228 16.7485 38.4182C 15.8059 39.7433 15.7522 41.8002 15.2224 43.4789C 12.8368 51.0361 13.7365 60.4294 17.2068 66.0224C 18.2718 67.7393 20.7798 71.4217 24.2283 70.0096C 27.245 68.775 26.5711 64.9498 27.4341 61.575C 27.6293 60.8096 27.5096 60.2472 27.8918 59.7348C 27.8918 59.7855 27.8918 59.8369 27.8918 59.8883C 28.8078 61.7284 29.7238 63.5685 30.6398 65.4082C 32.6732 68.6985 36.2822 72.1371 39.3404 74.4572C 40.9263 75.6603 42.1749 77.7406 44.2252 78.4443C 44.2252 78.3931 44.2252 78.3425 44.2252 78.2906C 44.1735 78.2906 44.1232 78.2906 44.0722 78.2906C 43.675 77.6682 43.0535 77.4107 42.5462 76.9106C 41.3513 75.7341 40.0232 74.2714 39.0351 72.9234C 36.2537 69.1296 33.7953 64.9771 31.5559 60.6549C 30.4862 58.5913 29.5565 56.3142 28.6548 54.2138C 28.3073 53.4039 28.3114 52.1796 27.5871 51.76C 26.5997 53.2992 25.145 54.5435 24.3813 56.3608C 23.16 59.2658 23.0022 62.8085 22.55 66.4822C 22.282 66.5786 22.401 66.5123 22.2439 66.6353C 20.1181 66.1201 19.3707 63.9214 18.5812 62.0353C 16.5825 57.2649 16.2112 49.5836 17.9698 44.0927C 18.4248 42.6722 20.4813 38.1974 19.6489 36.8851C 19.2517 35.5754 17.9406 34.8181 17.2068 33.8174C 16.299 32.5804 15.3924 30.9518 14.7641 29.5233C 13.1286 25.8038 12.3649 21.6285 10.643 17.8689C 9.82011 16.0715 8.42805 14.2528 7.28489 12.6549C 6.01931 10.8849 4.60209 9.58111 3.62146 7.44017C 3.27259 6.67957 2.7986 5.46191 3.31612 4.67999C 3.48069 4.15221 3.71259 3.93209 4.23214 3.75992C 5.11757 3.07407 7.58343 3.98811 8.50558 4.37309C 10.9538 5.39454 12.9966 6.36728 15.0701 7.74707C 16.0657 8.41025 17.0722 9.69254 18.2752 10.0475C 18.7328 10.0475 19.1912 10.0475 19.6489 10.0475C 21.7978 10.5439 24.2052 10.2017 26.2127 10.8141C 29.7612 11.8976 32.9411 13.5829 35.8293 15.415C 44.6278 20.9961 51.8214 28.9409 56.7422 38.4182C 57.5338 39.9441 57.8765 41.4006 58.5736 43.0192C 59.9806 46.2831 61.7528 49.6417 63.1524 52.8334C 64.5492 56.018 65.9106 59.2318 67.8848 61.8818C 68.9233 63.2749 72.9322 64.0222 74.754 64.7954C 76.0311 65.3379 78.1237 65.9029 79.3335 66.6353C 81.6443 68.0358 83.883 69.7028 86.0503 71.2366C 87.1336 72.0032 90.4632 73.6845 90.6291 75.07Z"/>
<path id="path6_fill" fill-rule="evenodd" d="M 2.74808 0.00198995C 1.62872 -0.018711 0.837142 0.124761 0 0.308268C 0 0.359576 0 0.410952 0 0.461714C 0.0510038 0.461714 0.102008 0.461714 0.153011 0.461714C 0.686851 1.56385 1.6294 2.27308 2.28973 3.22252C 2.79841 4.29603 3.30708 5.36954 3.81644 6.44236C 3.86676 6.3916 3.91845 6.34029 3.96877 6.28953C 4.91404 5.62034 5.34723 4.54956 5.34247 2.91563C 4.96369 2.51527 4.90792 2.01292 4.57946 1.53515C 4.14287 0.898687 3.29824 0.537071 2.74808 0.00198995Z"/>
</defs>
</svg>
