<svg width="537" height="89" viewBox="0 0 537 89" version="1.1" xmlns="http://www.w3.org/2000/svg" xmlns:xlink="http://www.w3.org/1999/xlink">
<title>postgres</title>
<desc>Created using Figma</desc>
<g id="Canvas" transform="translate(-5109 -8170)">
<clipPath id="clip-0" clip-rule="evenodd">
<path d="M 5109 8170L 5646 8170L 5646 8259L 5109 8259L 5109 8170Z" fill="#FFFFFF"/>
</clipPath>
<g id="postgres" clip-path="url(#clip-0)">
<path d="M 5109 8170L 5646 8170L 5646 8259L 5109 8259L 5109 8170Z" fill="#FFFFFF"/>
<g id="Group">
<g id="Vector">
<use xlink:href="#path0_fill" transform="translate(5475.14 8185.43)" fill="#326690"/>
</g>
<g id="Vector">
<use xlink:href="#path1_fill" transform="translate(5213 8185.91)"/>
</g>
<g id="Vector">
<use xlink:href="#path2_fill" transform="translate(5592.22 8185.91)" fill="#326690"/>
</g>
<g id="Vector">
<use xlink:href="#path3_fill" transform="translate(5338.76 8192.73)" fill="#FFFFFF"/>
</g>
<g id="Vector">
<use xlink:href="#path4_fill" transform="translate(5299.84 8203.82)" fill="#FFFFFF"/>
</g>
<g id="Vector">
<use xlink:href="#path5_fill" transform="translate(5408.42 8203.35)" fill="#FFFFFF"/>
</g>
<g id="Vector">
<use xlink:href="#path6_fill" transform="translate(5526.34 8185)" fill="#326690"/>
</g>
<g id="Vector">
<use xlink:href="#path7_fill" transform="translate(5339.41 8193.06)"/>
</g>
<g id="Vector">
<use xlink:href="#path8_fill" transform="translate(5256.06 8203.12)"/>
</g>
<g id="Vector">
<use xlink:href="#path9_fill" transform="translate(5299.52 8203.14)"/>
</g>
<g id="Vector">
<use xlink:href="#path10_fill" transform="translate(5362.2 8202.98)"/>
</g>
<g id="Vector">
<use xlink:href="#path11_fill" transform="translate(5408.32 8203.25)"/>
</g>
<g id="Vector">
<use xlink:href="#path12_fill" transform="translate(5429.62 8203.22)"/>
</g>
</g>
<g id="Group">
<g id="Vector">
<use xlink:href="#path13_fill" transform="translate(5117.36 8174)" fill="#FFFFFF"/>
</g>
<g id="Vector">
<use xlink:href="#path14_fill" transform="translate(5119.2 8176.05)" fill="#FFFFFF"/>
</g>
<g id="Vector">
<use xlink:href="#path15_fill" transform="translate(5172.19 8197.74)" fill="#FFFFFF"/>
</g>
<g id="Vector">
<use xlink:href="#path16_fill" transform="translate(5147.1 8198.32)" fill="#FFFFFF"/>
</g>
<g id="Vector">
<use xlink:href="#path17_fill" transform="translate(5166.45 8178.26)" fill="#326690"/>
</g>
<g id="Vector">
<use xlink:href="#path18_fill" transform="translate(5141.52 8179.11)" fill="#326690"/>
</g>
<g id="Vector">
<use xlink:href="#path19_fill" transform="translate(5121.5 8179.27)" fill="#326690"/>
</g>
<g id="Vector">
<use xlink:href="#path20_fill" transform="translate(5170.55 8196.62)" fill="#326690"/>
</g>
<g id="Vector">
<use xlink:href="#path21_fill" transform="translate(5140.98 8197.08)" fill="#326690"/>
</g>
<g id="Vector">
<use xlink:href="#path22_fill" transform="translate(5176.21 8222.56)" fill="#326690"/>
</g>
<g id="Vector">
<use xlink:href="#path23_fill" transform="translate(5142.56 8222.78)" fill="#326690"/>
</g>
<g id="Vector">
<use xlink:href="#path24_fill" transform="translate(5117 8174.12)"/>
</g>
</g>
</g>
</g>
<defs>
<path id="path0_fill" d="M 7.39789 2.87331C -0.321648 7.30032 9.96927e-06 21.603 8.36284 25.0084C 17.369 28.4138 27.0183 28.7543 36.0245 31.1381C 38.276 31.8192 40.5276 32.8408 41.4925 35.2246C 43.744 39.9921 41.8142 47.1435 36.6678 48.8462C 29.2699 51.2299 20.5854 51.2299 13.5092 48.1651C 8.68446 46.1218 6.43296 41.0137 6.11132 36.2462C 4.18143 36.2462 1.92987 36.2462 -9.81589e-06 36.5867C 0.321637 41.3543 1.28658 46.4624 4.8247 49.5272C 10.6143 54.2948 18.0122 54.9759 25.0885 55.3164C 31.5214 55.3164 38.5976 54.6353 44.0656 50.8894C 50.4986 46.1218 51.1419 33.5219 43.4224 29.4354C 36.3461 25.6895 28.3049 25.3489 20.9071 23.6462C 17.3689 22.6246 13.1875 22.2841 9.97107 19.9003C 5.78966 15.8138 7.71954 7.30031 13.1875 5.93815C 20.2638 3.89492 27.9833 3.55438 34.7379 6.2787C 38.9193 7.64086 40.5275 12.4084 41.1708 16.1543C 43.1007 16.1543 45.0306 16.1543 47.2821 16.1543C 47.2821 12.0679 45.9955 7.64085 42.7791 4.91654C 37.6327 0.489523 30.5565 0.148991 24.4452 0.148991C 18.9772 -0.191548 12.8659 -0.191551 7.39789 2.87331Z"/>
<path id="path1_fill" d="M 40.2059 4.08648C 36.9894 1.02162 32.1647 0 27.9833 0C 18.6555 0 9.32776 0.340534 -9.81589e-06 0.340534C -9.81589e-06 17.7081 -9.81589e-06 35.4161 -9.81589e-06 52.7836C 1.60823 52.7836 3.21646 52.7836 4.8247 52.7836C 4.8247 45.2918 4.50305 37.7999 4.8247 30.6486C 12.8659 30.6486 20.5854 30.6486 28.6266 30.6486C 34.4162 30.308 41.1708 27.5837 43.4224 21.454C 45.3522 15.6648 44.709 8.17295 40.2059 4.08648ZM 37.6327 20.4324C 36.0245 24.8594 31.1998 26.2215 27.0184 26.5621C 19.6205 26.9026 12.2226 26.5621 5.14636 26.5621C 5.14636 19.4108 5.14636 11.9189 5.14636 4.76756C 12.2226 4.76756 19.2988 4.76756 26.3751 4.76756C 29.9132 4.76756 34.0946 5.44863 36.3461 8.51349C 38.5977 11.5783 38.9193 16.3459 37.6327 20.4324Z"/>
<path id="path2_fill" d="M 1.96318e-05 0.340534C 1.96318e-05 17.7081 1.96318e-05 35.0756 1.96318e-05 52.7836C 14.1525 52.7836 28.6266 52.7836 42.7791 52.7836C 42.7791 51.4215 42.7791 50.0593 42.7791 48.3566C 30.5565 48.0161 18.3339 48.3566 5.78963 48.0161C 5.78963 32.0107 5.78963 16.0054 5.78963 0C 3.85975 0.34054 1.9299 0.340534 1.96318e-05 0.340534Z"/>
<path id="path3_fill" d="M 6.43295 0.340534C 6.43295 4.08647 6.43295 7.83242 6.43295 11.5784C 4.18142 11.5784 2.25154 11.5784 9.81589e-06 11.5784C 9.81589e-06 12.6 9.81589e-06 13.9621 9.81589e-06 14.9837C 2.25154 14.9837 4.50307 14.9837 6.43295 14.9837C 6.43295 22.8162 6.43295 30.9891 6.43295 38.8215C 6.43295 41.2053 7.07623 43.5891 9.00612 44.9512C 12.5442 46.6539 16.404 46.3134 20.2638 45.9728C 20.2638 44.9512 20.2638 43.5891 20.2638 42.5674C 17.6906 42.908 15.1174 43.2485 12.8659 41.8864C 11.2577 40.8647 11.5793 38.8215 11.2577 37.1188C 11.2577 29.6269 11.2577 22.4756 11.2577 14.9837C 14.1525 14.9837 17.0473 14.9837 19.9421 14.9837C 19.9421 13.6216 19.9421 12.6 19.6205 11.2378C 16.7257 11.2378 13.8308 11.2378 10.936 11.2378C 10.936 7.49187 10.936 3.74594 10.936 2.41968e-14C 9.97105 0.34054 8.04119 0.340534 6.43295 0.340534Z"/>
<path id="path4_fill" d="M 4.50306 2.52775C -4.98463e-06 5.59261 4.6012e-06 14.4466 5.46801 16.8304C 12.8659 19.5547 21.2287 18.8737 28.9482 21.2574C 32.808 22.6196 33.1297 28.7493 29.5915 30.7925C 24.4452 33.5168 18.3339 33.1763 12.8659 32.1547C 9.00611 31.4736 5.78965 28.7493 5.46801 24.3223C 3.53812 24.3223 1.60823 24.3223 -9.81589e-06 24.3223C 0.643285 27.3871 1.28659 30.7925 3.85977 32.8358C 8.04118 35.9006 13.5092 35.9006 18.3339 36.2412C 23.4802 36.2412 28.9482 35.9006 33.4513 33.1763C 37.3111 30.7925 38.5977 25.3439 36.3461 21.598C 34.7379 18.8736 31.8431 17.852 28.9482 17.171C 22.8369 15.8088 16.404 15.8088 10.2927 14.4466C 8.04118 13.7656 6.11129 12.0629 6.11129 9.67908C 6.11129 6.27368 9.64941 4.57099 12.5442 3.88992C 17.0473 3.20884 22.1937 2.86829 26.6967 4.91153C 29.2699 5.93315 29.9132 8.65746 30.5565 11.3818C 32.4864 11.3818 34.0946 11.3818 36.0245 11.3818C 35.7028 8.31692 34.7379 4.91153 32.1647 3.20883C 27.34 -0.196562 21.5504 -0.196567 16.0823 0.143972C 12.2226 -0.196567 8.04117 0.143975 4.50306 2.52775Z"/>
<path id="path5_fill" d="M 10.114 1.29967C 7.86251 2.32129 6.57592 4.70507 5.28933 7.08884C 5.28933 5.04561 5.28933 3.00237 5.28933 1.29967C 3.68109 1.29967 2.07284 1.29967 0.142954 1.29967C -0.178693 12.878 0.142954 24.1158 0.142954 35.6942C 1.75119 35.6942 3.35943 35.6942 4.96766 35.6942C 4.96766 29.905 4.96766 23.7753 4.96766 17.9861C 4.96766 13.8996 6.25423 9.13207 9.4707 6.7483C 13.0088 4.02398 17.5119 4.70506 21.6933 4.70506C 21.6933 3.34291 21.6933 1.64021 21.6933 0.278052C 17.8335 -0.0624876 13.9738 -0.40303 10.114 1.29967Z"/>
<path id="path6_fill" d="M 13.1341 3.97954C 20.2104 0.233602 28.2516 -0.447485 35.9711 0.233594C 43.369 0.914673 50.7668 3.63899 55.5916 9.7687C 61.7029 16.5795 62.9894 27.4768 60.4163 36.3308C 59.1297 41.4389 55.9132 45.1848 52.3751 48.5902C 55.2699 50.6335 58.1648 52.6767 61.0596 55.0605C 59.773 56.4226 58.4864 57.4443 57.1998 58.8064C 54.305 56.7632 51.4102 54.3794 48.5153 52.6767C 46.2638 52.6767 44.0123 54.0389 41.4391 54.7199C 35.0062 56.0821 27.9299 56.0821 21.497 54.7199C 14.4207 53.3578 7.34449 48.9308 3.48472 42.12C -0.375045 35.6497 -0.696701 27.1362 0.911534 19.9849C 2.84142 12.8336 7.34449 7.04439 13.1341 3.97954ZM 22.7836 5.34169C 16.029 7.04439 9.59601 12.1525 7.34448 19.3038C 5.09295 27.1362 5.73628 36.3308 11.2043 42.801C 16.029 48.5902 23.1052 50.974 30.1814 50.974C 37.901 51.3145 46.2638 48.9308 51.4102 42.4605C 58.4864 32.9254 57.5215 17.6011 48.1937 10.1092C 41.1175 3.639 31.468 3.29845 22.7836 5.34169Z"/>
<path id="path7_fill" d="M 5.78966 -5.19622e-06C 7.39789 -5.19622e-06 9.00613 -5.19622e-06 10.936 -5.19622e-06C 10.936 3.74593 10.936 7.49188 10.936 11.2378C 13.8308 11.2378 16.7256 11.2378 19.6205 11.2378C 19.6205 12.6 19.6205 13.6216 19.9421 14.9837C 17.0473 14.9837 14.1525 14.9837 11.2577 14.9837C 11.2577 22.4756 11.2577 29.6269 11.2577 37.1188C 11.2577 38.8215 11.2577 40.8648 12.8659 41.8864C 15.1174 42.908 17.6906 42.5674 20.2638 42.5674C 20.2638 43.5891 20.2638 44.9512 20.2638 45.9728C 16.404 46.3134 12.5442 46.6539 9.00613 44.9512C 6.7546 43.9296 6.1113 41.2053 6.43294 38.8215C 6.43294 30.9891 6.43294 22.8162 6.43294 14.9837C 4.18141 14.9837 1.92988 14.9837 4.57088e-14 14.9837C 4.57088e-14 13.9621 4.57088e-14 12.6 4.57088e-14 11.5783C 2.25153 11.5783 4.18141 11.5783 6.43294 11.5783C 5.78965 7.49187 5.78966 3.74593 5.78966 -5.19622e-06Z"/>
<path id="path8_fill" d="M 33.8152 3.23106C 28.0255 -0.174337 20.9493 -0.514874 14.5163 0.506744C 9.04833 1.52836 3.90198 4.59322 1.65045 10.0419C -0.601082 15.4905 -0.601087 21.9607 1.97209 27.4094C 4.86692 33.1985 10.9782 36.2634 16.7679 36.6039C 24.1658 37.285 32.5286 36.2634 37.9966 30.1337C 43.7862 22.3013 42.4996 8.33915 33.8152 3.23106ZM 32.8502 28.7715C 29.9554 31.8364 25.774 33.1985 21.9142 33.1985C 17.4112 33.5391 12.5865 32.5175 9.36999 29.4526C 5.18857 25.3661 4.54528 18.5553 6.15351 12.7662C 7.76175 7.65807 12.2648 4.59322 17.0895 3.91214C 21.5926 3.23106 26.7389 3.5716 30.9203 6.29592C 34.1368 8.33916 35.7451 12.0851 36.0667 15.831C 36.71 20.5986 36.0667 25.3661 32.8502 28.7715Z"/>
<path id="path9_fill" d="M 4.8247 3.20883C 8.04117 0.825054 12.2226 0.484509 16.0824 0.14397C 21.5504 -0.19657 27.6616 -0.196565 32.1647 3.20883C 34.7379 4.91153 35.7028 8.31693 36.0245 11.3818C 34.0946 11.3818 32.4864 11.3818 30.5565 11.3818C 30.2348 8.65747 29.2699 6.27369 26.6967 4.91153C 22.1937 2.86829 17.3689 2.86829 12.5442 3.88991C 9.64942 4.23045 6.1113 5.93315 6.1113 9.67909C 5.78965 12.0629 8.04119 14.1061 10.2927 14.4466C 16.404 16.1493 22.8369 15.8088 28.9482 17.1709C 31.8431 17.852 34.7379 19.2142 36.3461 21.598C 38.5977 25.3439 37.3111 31.1331 33.4513 33.1763C 28.9482 35.9006 23.4803 36.2412 18.3339 36.2412C 13.5092 35.9006 8.04119 35.9006 3.85978 32.8358C 1.2866 30.7925 0.321642 27.7277 -4.90795e-06 24.3223C 1.92988 24.3223 3.85978 24.3223 5.46801 24.3223C 5.46801 28.7493 9.00612 31.8142 12.8659 32.1547C 18.3339 32.8358 24.4452 33.5168 29.5915 30.7925C 33.1297 28.7493 32.808 22.6196 28.9482 21.2574C 21.2287 18.8736 12.8659 19.5547 5.46801 16.8304C 0.321657 15.1277 0.321642 6.27369 4.8247 3.20883Z"/>
<path id="path10_fill" d="M 12.2707 0.982603C 17.417 -0.379555 23.2067 -0.379547 28.353 1.32315C 31.2479 2.34477 33.4994 4.72854 35.7509 6.77178C 35.7509 4.72854 36.0726 3.02585 36.0726 1.32315C 37.6808 1.32315 39.2891 1.32315 40.8973 1.32315C 41.2189 11.8799 40.8973 22.4366 41.2189 32.9933C 41.5406 37.4203 40.5756 42.1879 37.3592 45.2527C 33.1777 49.3392 27.0665 50.0203 21.5985 50.0203C 16.7738 50.0203 11.6274 49.6798 7.12435 47.296C 4.22952 45.5933 2.62126 42.1879 1.97797 38.7825C 3.58621 38.7825 5.19444 38.7825 6.80268 38.7825C 7.76762 41.1663 8.73257 43.8906 10.9841 44.9122C 14.5222 46.6149 18.382 46.6149 22.2418 46.6149C 26.4232 46.2744 31.2479 45.5933 33.8211 41.8474C 36.3942 38.1014 35.7509 33.3339 35.7509 28.9068C 30.6046 34.696 22.5634 35.7176 15.4871 34.696C 10.9841 34.0149 6.48106 32.3123 3.26459 28.5663C -0.27353 23.7988 -0.595187 17.3285 0.691401 11.8799C 1.97799 6.43124 7.12432 2.34476 12.2707 0.982603ZM 16.4521 4.388C 12.914 5.06908 9.05423 6.77178 7.12435 10.1772C 4.87282 14.2636 4.87281 19.7123 6.15939 23.7988C 7.76763 28.2258 12.5923 30.6096 16.7738 31.2906C 22.2418 31.9717 28.6747 31.2906 32.5345 26.8636C 37.0375 21.0744 36.3942 11.1988 30.6046 6.77178C 26.7448 3.70692 21.2768 3.70692 16.4521 4.388Z"/>
<path id="path11_fill" d="M 10.2123 1.38996C 14.0721 -0.31274 17.9318 0.027794 21.7916 0.027794C 21.7916 1.38995 21.7916 3.09266 21.7916 4.45482C 17.6102 4.45482 13.1071 3.77373 9.56898 6.49805C 6.35251 8.88183 5.06594 13.6494 5.06594 17.7359C 5.06594 23.525 5.06594 29.6547 5.06594 35.4439C 3.45771 35.4439 1.84947 35.4439 0.241235 35.4439C -0.0804118 23.8656 -0.0804118 12.6278 0.241235 1.04942C 1.84947 1.04942 3.45773 1.04942 5.38761 1.04942C 5.38761 3.09266 5.38761 5.13589 5.38761 6.83859C 6.6742 4.79535 7.96079 2.41158 10.2123 1.38996Z"/>
<path id="path12_fill" d="M 2.41646 8.57282C 5.63294 2.78365 12.3875 0.399868 18.4988 0.0593286C 24.9318 -0.281211 32.008 0.74041 36.511 5.8485C 40.0492 9.2539 41.0141 14.362 41.3357 19.4701C 29.1132 19.4701 17.2122 19.4701 4.98965 19.4701C 5.3113 22.8755 6.27623 26.6214 8.84941 29.0052C 13.6741 33.4322 20.7504 34.1133 26.54 32.4106C 30.3998 31.389 33.6162 28.3241 34.9028 24.2376C 36.8327 24.2376 38.7626 24.2376 40.3708 24.2376C 38.7626 30.0268 33.9379 34.1133 28.4699 35.4755C 21.072 37.1781 12.3875 36.8376 5.95455 32.0701C -0.478391 27.3025 -1.76495 16.0647 2.41646 8.57282ZM 11.7442 5.8485C 8.20609 7.89174 6.27623 11.9782 5.63294 16.0647C 15.9256 16.0647 26.2183 16.0647 36.511 16.0647C 36.1894 13.6809 35.5461 10.9566 33.9379 9.2539C 28.4699 2.44311 18.4988 1.76203 11.7442 5.8485Z"/>
<path id="path13_fill" d="M 45.4236 1.42732C 42.1112 0.903057 38.6245 0.728302 35.3121 1.25257C 33.3944 1.60207 31.4768 2.47584 29.9077 3.34962C 24.5034 1.60207 18.4016 0.553546 12.8229 1.60207C 8.8132 2.30109 4.97783 4.74766 2.88581 8.4175C 0.270787 12.7864 -0.252218 18.029 0.0964516 23.0969C 0.793792 28.689 2.18847 34.2812 3.75749 39.6985C 5.15217 44.4169 6.72118 49.1353 9.33621 53.3294C 10.7309 55.6012 12.8229 58.0478 15.6123 58.7468C 17.8786 59.271 20.145 58.572 21.8883 57.174C 22.76 58.0478 23.806 58.7468 25.0264 59.0963C 28.3387 60.3196 31.9998 60.3196 35.3121 58.9215C 35.4865 63.4652 35.3121 68.1835 37.0555 72.3776C 37.7528 74.4747 38.7988 76.397 40.7165 77.6203C 42.8085 79.0183 45.2492 79.1931 47.6899 78.8436C 49.7819 78.494 52.0483 77.795 53.7916 76.7465C 55.7093 75.5232 57.2783 73.7757 58.15 71.6786C 60.242 66.9603 60.4164 61.8924 60.5907 56.8245C 65.4721 57.174 70.5278 55.9507 74.1889 52.6304C 75.5835 51.4071 76.8039 49.4848 76.2809 47.5625C 75.7579 45.815 73.8402 44.5917 72.0968 44.7664C 70.1791 44.9412 68.4358 45.4654 66.5181 45.4654C 70.7021 38.1258 74.0145 30.2618 75.4092 22.0483C 75.9322 18.5533 76.4552 15.0582 75.4092 11.5631C 74.8862 9.64078 73.4915 8.06799 72.0968 6.66995C 68.9588 3.52437 64.6004 1.42732 60.242 0.553548C 55.1863 -0.494978 50.1306 0.029285 45.4236 1.42732Z"/>
<path id="path14_fill" d="M 43.4154 1.47391C 48.6455 -0.0988829 54.2242 -0.623145 59.4542 0.949645C 63.6383 2.17293 67.4736 4.61949 70.0887 8.11458C 71.1347 9.51261 71.4834 11.4349 71.4834 13.1825C 71.6577 16.328 70.9603 19.4736 70.263 22.4444C 68.3453 30.4832 64.8586 37.9976 60.5002 44.9878C 62.9409 46.0363 65.7303 45.512 68.171 45.1625C 69.217 44.9878 70.6117 44.6383 71.309 45.6868C 72.0063 46.7353 71.309 47.9586 70.6117 48.6576C 66.9506 52.3275 61.3719 53.2012 56.4905 52.3275C 55.9675 56.6963 55.4445 61.0652 54.7472 65.6088C 54.3985 68.0554 53.5268 70.6767 51.6092 72.2495C 49.8658 73.8223 47.4251 74.5213 45.1588 74.8708C 42.8924 75.2203 40.103 75.0455 38.3597 73.298C 36.442 71.5504 35.2217 68.9291 35.0473 66.4826C 34.5243 62.1137 34.5243 57.5701 34.5243 53.2012C 32.4323 54.9488 29.6429 55.9973 26.8536 55.8225C 24.9359 55.6478 22.6695 55.2983 21.2749 53.9002C 20.4032 53.2012 20.5775 51.8032 21.4492 51.1042C 23.0182 49.8809 25.1102 50.0556 26.8536 49.3566C 28.2483 49.0071 28.9456 47.6091 29.6429 46.7353C 28.0739 46.5606 26.5049 46.211 25.2846 45.512C 23.1925 47.7838 21.1005 50.2304 19.1828 52.5022C 17.9625 53.9002 16.3935 55.1235 14.4758 54.774C 12.3838 54.4245 10.8148 52.8517 9.59441 51.2789C 7.32805 47.9586 5.75904 44.114 4.53869 40.2694C 2.62101 33.9782 1.05199 27.6871 0.180316 21.2212C -0.34269 16.328 0.180316 11.0854 2.96968 7.06605C 5.23603 3.74572 9.0714 1.99817 12.9068 1.64866C 18.1368 1.1244 23.3669 2.17292 28.2483 3.92047C 32.258 1.29915 37.488 0.774891 42.1951 1.82342C 42.7181 1.47391 43.0667 1.64866 43.4154 1.47391ZM 47.2508 2.87194C 48.2968 3.57096 49.3428 4.09522 50.3888 4.79424C 54.5729 7.59031 57.8852 11.6097 59.8029 16.1533C 60.3259 17.5513 61.0233 18.7746 60.8489 20.3474C 60.8489 23.3182 59.8029 26.289 60.1516 29.2599C 60.5002 32.4054 61.1976 35.7258 60.3259 38.8714C 60.1516 39.9199 59.4542 40.9684 59.1056 42.0169C 59.1056 42.1917 59.2799 42.5412 59.2799 42.5412C 59.6286 42.0169 59.9772 41.4927 60.3259 40.9684C 63.6383 35.551 66.079 29.6094 67.8223 23.493C 68.694 20.1726 69.3913 16.6775 69.3913 13.1825C 69.3913 11.7844 69.217 10.2116 68.3453 8.98835C 66.4276 6.54179 63.8126 4.61949 60.8489 3.39621C 56.4905 1.99817 51.7835 1.82342 47.2508 2.87194ZM 35.0473 3.22145C 31.735 3.57096 28.5969 5.49326 26.6792 8.11458C 24.0642 11.7844 22.8439 16.328 22.4952 20.6969C 25.2846 19.4736 28.2483 18.2503 31.3863 18.9494C 33.304 19.4736 34.873 21.2212 35.2217 23.1435C 36.0933 27.1628 36.6163 31.1822 35.7447 35.2015C 35.0473 38.3471 33.1296 41.1432 32.4323 44.4635C 33.304 44.4635 34.1756 44.6383 34.873 44.9878C 36.442 45.8615 37.3137 47.6091 37.1393 49.3566C 36.965 53.7255 36.965 58.0944 37.3137 62.4632C 37.488 64.2108 37.488 66.1331 38.011 67.8806C 38.7084 69.9777 40.103 72.0747 42.3694 72.599C 44.8101 72.9485 47.2508 72.2495 49.5171 71.2009C 51.6092 70.1524 52.6552 67.7058 53.0038 65.434C 53.7012 60.7157 54.2242 55.9973 54.7472 51.2789C 54.9215 49.5314 54.5729 47.7838 55.6189 46.2111C 56.1419 45.1625 57.1879 44.813 58.0596 44.2888C 57.3622 43.2402 56.4905 42.1917 55.7932 41.1432C 53.5268 36.25 50.3888 31.7064 49.3428 26.4638C 48.9941 24.192 49.1685 21.5707 51.0861 19.9979C 53.1782 18.2503 55.9675 18.4251 58.5826 18.4251C 57.0135 14.0562 54.2242 10.2116 50.7375 7.41556C 46.2048 4.09522 40.4517 2.52243 35.0473 3.22145ZM 11.8608 3.57096C 8.89707 4.09523 5.93337 5.84277 4.36436 8.63884C 2.27234 12.3087 2.098 16.5028 2.44667 20.5221C 3.14401 25.7648 4.36436 31.0074 5.93337 36.25C 7.32805 40.6189 8.72273 44.9878 11.1634 48.8324C 12.0351 50.2304 13.0811 51.6284 14.6501 52.1527C 16.0448 52.5022 17.0908 51.2789 17.9625 50.4052C 19.7058 48.1334 21.7979 46.0363 23.7156 43.7645C 20.9262 41.3179 19.5315 37.4733 19.8802 33.6287C 20.2288 30.8327 20.4032 27.8618 20.2288 24.891C 19.8802 20.8717 20.5775 16.6775 21.7979 12.6582C 22.6695 9.68737 24.2386 7.06605 26.3306 4.79424C 21.6235 3.74571 16.5678 2.69719 11.8608 3.57096ZM 52.4808 21.5707C 51.0862 22.6192 51.0861 24.7162 51.4348 26.289C 52.4808 31.3569 55.4445 35.551 57.5365 40.0946C 59.2799 36.7743 58.2339 32.9297 57.8852 29.2599C 57.5365 26.289 58.4082 23.493 58.5826 20.6969C 56.6649 20.6969 54.3985 20.3474 52.4808 21.5707ZM 22.3209 23.493C 22.3209 25.9395 22.4952 28.3861 22.3209 30.6579C 22.1465 32.755 21.6235 34.852 22.1465 36.9491C 22.8439 40.7937 26.1562 43.9392 30.1659 43.9392C 30.6889 42.0169 31.3863 40.0946 32.258 38.3471C 34.6987 33.6287 34.1757 28.2113 32.9553 23.3182C 32.6066 21.9202 31.3863 20.8717 29.9916 20.8717C 27.2022 20.8717 24.5872 22.0949 22.3209 23.493ZM 57.7109 47.0848C 57.0135 47.7838 57.0135 48.8324 57.0135 49.7061C 58.5826 50.2304 60.3259 50.2304 62.0693 50.0556C 64.5099 49.7061 67.125 49.0071 69.0427 47.0848C 66.079 47.4343 62.7666 48.1333 59.8029 46.7353C 59.1056 46.3858 58.2339 46.7353 57.7109 47.0848ZM 28.9456 50.5799C 27.2023 51.6284 25.1102 51.4537 23.5412 52.3275C 27.0279 54.075 32.0836 53.5507 34.5243 50.2304C 35.7447 49.0071 34.5243 46.5606 32.9553 46.7353C 31.212 47.7838 30.5146 49.7061 28.9456 50.5799Z"/>
<path id="path15_fill" d="M 0.188062 0.579084C 1.23407 -0.119934 2.62875 -0.119935 3.67476 0.229574C 3.67476 1.62761 1.93141 2.67614 0.711065 1.97712C 0.362395 1.80236 -0.334944 1.10335 0.188062 0.579084Z"/>
<path id="path16_fill" d="M 0.697342 0.174757C 1.74335 -0.174752 2.9637 1.30202e-06 3.83537 0.699019C 4.35838 1.22328 3.83537 2.09705 3.31237 2.27181C 2.09202 3.14558 0.174334 2.27181 -1.33007e-06 0.873771C -1.33007e-06 0.524262 0.348671 0.174757 0.697342 0.174757Z"/>
<path id="path17_fill" d="M 2.66014e-06 0.660894C 4.35838 -0.387633 9.23975 -0.212879 13.4238 1.35991C 16.3875 2.40844 19.0025 4.50549 20.9202 6.95205C 21.9662 8.17533 21.9662 9.74813 21.9662 11.1462C 21.9662 14.6413 21.2689 17.9616 20.3972 21.4567C 18.6538 27.5731 16.2132 33.5147 12.9008 38.9321C 12.5521 39.4564 12.2035 39.9806 11.8548 40.5049C 11.8548 40.3302 11.6804 39.9806 11.6804 39.9806C 12.0291 38.9321 12.7265 37.8836 12.9008 36.8351C 13.7725 33.6895 13.0751 30.3692 12.7265 27.2236C 12.3778 24.2527 13.4238 21.2819 13.4238 18.3111C 13.5981 16.9131 12.9008 15.515 12.3778 14.117C 10.2858 9.57337 7.14773 5.55402 2.96369 2.75795C 2.26635 1.88417 1.04601 1.35991 2.66014e-06 0.660894Z"/>
<path id="path18_fill" d="M 12.7265 0.163273C 18.1308 -0.535745 23.8839 1.03704 28.2423 4.35738C 31.729 7.15345 34.6927 10.998 36.0874 15.3669C 33.6467 15.3669 30.683 15.1922 28.5909 16.9397C 26.6733 18.5125 26.4989 21.1338 26.8476 23.4056C 27.8936 28.823 31.0316 33.3666 33.298 38.085C 33.821 39.3083 34.6927 40.182 35.5644 41.2306C 34.5183 41.7548 33.6467 42.1043 33.1237 43.1529C 32.252 44.7257 32.6007 46.4732 32.252 48.2208C 31.729 52.9391 31.206 57.6575 30.5086 62.3759C 30.16 64.6477 29.114 67.0942 27.0219 68.1428C 24.9299 69.1913 22.3149 69.8903 19.8742 69.5408C 17.6078 69.1913 16.0388 66.9195 15.5158 64.8224C 14.9928 63.0749 14.9928 61.1526 14.8185 59.405C 14.6441 55.0362 14.6441 50.6673 14.6441 46.2985C 14.8185 44.5509 13.9468 42.8034 12.3778 41.9296C 11.6804 41.5801 10.8088 41.4053 9.9371 41.4053C 10.6344 38.2597 12.5521 35.4637 13.2495 32.1433C 14.1211 28.124 13.5981 24.1046 12.7265 20.0853C 12.3778 18.163 10.8088 16.4154 8.89109 15.8912C 5.75306 15.1922 2.78936 16.2407 -2.66014e-06 17.6387C 0.348667 13.2699 1.56902 8.72624 4.18404 5.0564C 6.27606 2.43508 9.4141 0.687536 12.7265 0.163273Z"/>
<path id="path19_fill" d="M 9.55574 0.349843C 14.4371 -0.523929 19.3185 0.349842 24.0256 1.74788C 21.9335 4.01969 20.3645 6.641 19.4928 9.61183C 18.2725 13.4564 17.7495 17.6505 17.9238 21.8446C 18.0982 24.8155 18.0982 27.6115 17.5752 30.5824C 17.0521 34.2522 18.6212 38.0968 21.4105 40.7181C 19.4928 42.9899 17.5751 45.087 15.6575 47.3588C 14.7858 48.4073 13.7398 49.4558 12.3451 49.1063C 10.7761 48.5821 9.73008 47.184 8.8584 45.786C 6.41771 41.9414 5.02303 37.5725 3.62835 33.2037C 2.05933 28.1358 0.838989 22.8932 0.141649 17.4758C -0.207022 13.4564 -0.0326892 9.08757 2.05933 5.59248C 3.62835 2.79641 6.41771 1.04886 9.55574 0.349843Z"/>
<path id="path20_fill" d="M 1.12853 0.997345C 2.87188 -0.225936 5.31258 -0.0511817 7.23026 0.123573C 7.05593 2.91964 6.18425 5.71571 6.53292 8.68654C 6.88159 12.1816 7.75326 16.0262 6.18425 19.5213C 3.91789 14.9777 0.954195 10.7836 0.0825198 5.71571C -0.0918153 4.14292 -0.0918113 2.22063 1.12853 0.997345ZM 1.82587 1.69636C 1.30286 2.22062 1.82587 2.91964 2.34887 3.09439C 3.56922 3.79341 5.31257 2.74488 5.31257 1.34685C 4.26656 0.99734 2.87188 0.997341 1.82587 1.69636Z"/>
<path id="path21_fill" d="M 0.543173 2.46326C 2.80953 1.06522 5.42456 -0.158062 8.03959 0.0166922C 9.43427 0.0166922 10.6546 1.06522 11.0033 2.46326C 12.2236 7.35638 12.5723 12.7738 10.3059 17.4921C 9.43427 19.2397 8.73692 21.162 8.21392 23.0843C 4.20421 23.0843 0.891849 19.7639 0.194509 16.0941C -0.328496 13.9971 0.368841 11.9 0.368841 9.80295C 0.717511 7.18163 0.543173 4.90982 0.543173 2.46326ZM 6.81924 1.41473C 6.47057 1.58949 6.1219 1.76424 6.1219 2.11375C 6.29623 3.51178 8.21392 4.38555 9.43427 3.51178C 9.95727 3.16227 10.4803 2.46326 9.95727 1.939C 9.08559 1.23998 7.86525 1.06522 6.81924 1.41473Z"/>
<path id="path22_fill" d="M 0.697343 0.571303C 1.22035 0.221794 2.09202 -0.302471 2.78936 0.221792C 5.57872 1.79458 8.89109 0.920812 12.0291 0.571303C 10.1114 2.31885 7.67074 3.19262 5.05572 3.54213C 3.31237 3.71688 1.56902 3.89164 -1.23873e-14 3.19262C -2.47745e-14 2.31885 2.64975e-06 1.27032 0.697343 0.571303Z"/>
<path id="path23_fill" d="M 5.57872 3.85348C 7.14774 2.97971 7.84508 1.05741 9.41409 0.00888428C 10.9831 -0.16587 12.3778 2.28069 10.9831 3.50397C 8.54242 6.82431 3.4867 7.52333 1.33007e-06 5.60103C 1.74335 4.90201 3.83537 4.90201 5.57872 3.85348Z"/>
<path id="path24_fill" d="M 45.7874 1.30767C 50.4944 0.0843855 55.5501 -0.439878 60.4315 0.433894C 64.7899 1.13291 68.9739 3.40472 72.2863 6.5503C 73.681 7.94834 75.0756 9.52112 75.5987 11.4434C 76.6447 14.9385 76.1217 18.4336 75.5987 21.9287C 74.0296 30.1422 70.8916 38.0061 66.7076 45.3458C 68.6253 45.3458 70.3686 44.8215 72.2863 44.6468C 74.0296 44.472 76.1217 45.6953 76.4703 47.4428C 76.9933 49.3651 75.773 51.2874 74.3783 52.5107C 70.5429 55.8311 65.3129 56.8796 60.6058 56.7048C 60.2572 61.7727 60.2572 66.8406 58.1651 71.559C 57.1191 73.656 55.7245 75.4036 53.8068 76.6268C 51.8891 77.8501 49.7971 78.3744 47.705 78.7239C 45.4387 79.0734 42.8237 78.8987 40.7316 77.5006C 38.814 76.2773 37.7679 74.355 37.0706 72.258C 35.5016 67.8891 35.6759 63.3455 35.3273 58.8019C 32.0149 60.1999 28.3539 60.1999 25.0415 58.9766C 23.8211 58.6271 22.7751 57.9281 21.9035 57.0543C 20.1601 58.4524 17.8937 59.1514 15.6274 58.6271C 12.838 57.9281 10.9203 55.4815 9.35133 53.2097C 6.73631 49.0156 5.16729 44.2973 3.77261 39.5789C 2.2036 34.1615 0.808915 28.7441 0.111575 22.9772C -0.237095 17.9093 0.111576 12.6667 2.90094 8.29785C 4.99296 4.80276 8.82833 2.35619 12.838 1.48242C 18.5911 0.259137 24.5185 1.48242 29.9229 3.05521C 31.6662 2.18144 33.4096 1.30767 35.3273 0.958156C 38.9883 0.433893 42.475 0.783403 45.7874 1.30767ZM 45.613 3.40472C 45.2644 3.57947 44.7413 3.22996 44.3927 3.22996C 39.6856 2.18144 34.4556 2.7057 30.4459 5.32702C 25.5645 3.57947 20.3344 2.53095 15.1044 3.05521C 11.269 3.40472 7.25931 5.32702 5.16729 8.4726C 2.37793 12.6667 2.02926 17.9093 2.37793 22.6277C 3.2496 29.0936 4.81862 35.3848 6.73631 41.5012C 8.13099 45.3458 9.52567 49.1904 11.792 52.5107C 13.0124 54.0835 14.5814 55.8311 16.6734 56.0058C 18.5911 56.1806 20.1601 55.132 21.3804 53.734C 23.4725 51.2874 25.3902 49.0156 27.4822 46.7438C 28.8769 47.4428 30.4459 47.7924 31.8406 47.9671C 30.9689 49.0156 30.2715 50.2389 29.0512 50.5884C 27.3078 51.2874 25.2158 51.1127 23.6468 52.336C 22.7751 53.035 22.6008 54.433 23.4725 55.132C 24.8671 56.5301 27.1335 56.8796 29.0512 57.0543C 31.8406 57.2291 34.6299 56.3553 36.7219 54.433C 36.7219 58.8019 36.7219 63.3455 37.2449 67.7144C 37.4193 70.3357 38.6396 72.957 40.5573 74.5298C 42.3007 76.1026 45.09 76.4521 47.3564 76.1026C 49.6227 75.5783 52.0634 74.8793 53.8068 73.4813C 55.7245 71.7337 56.5961 69.2871 56.9448 66.8406C 57.6421 62.4717 58.1651 58.1029 58.6882 53.5592C 63.5695 54.433 69.1483 53.3845 72.8093 49.8894C 73.5066 49.1904 74.3783 47.7924 73.5066 46.9186C 72.8093 46.0448 71.4146 46.2196 70.3686 46.3943C 67.9279 46.9186 65.1385 47.4428 62.6979 46.2196C 67.0562 39.2294 70.5429 31.7149 72.4606 23.6762C 73.158 20.7054 73.681 17.5598 73.681 14.4143C 73.5066 12.6667 73.3323 10.7444 72.2863 9.34637C 69.6713 5.85128 65.8359 3.40472 61.6518 2.18144C 56.5961 1.48242 50.8431 1.83193 45.613 3.40472Z"/>
</defs>
</svg>
