<svg width="574" height="164" viewBox="0 0 574 164" version="1.1" xmlns="http://www.w3.org/2000/svg" xmlns:xlink="http://www.w3.org/1999/xlink">
<title>SQLite370</title>
<desc>Created using Figma</desc>
<g id="Canvas" transform="translate(-7918 -2543)">
<g id="SQLite370">
<g id="SQLite">
<use xlink:href="#path0_fill" transform="translate(8082 2568)" fill="#003B57"/>
</g>
<g id="solid background">
<use xlink:href="#path1_fill" transform="translate(7918 2550.04)" fill="#0F80CC"/>
</g>
<g id="gradient background">
<use xlink:href="#path2_fill" transform="translate(7921.54 2553.57)" fill="url(#paint2_linear)"/>
</g>
<g id="feather">
<use xlink:href="#path3_fill" transform="translate(7989 2543)" fill="#003B57"/>
</g>
</g>
</g>
<defs>
<linearGradient id="paint2_linear" x1="0" y1="0" x2="1" y2="0" gradientUnits="userSpaceOnUse" gradientTransform="matrix(-4.45903e-06 101.926 -101.926 -4.45903e-06 111.208 2.25762)">
<stop offset="0" stop-color="#97D9F6"/>
<stop offset="0.920245" stop-color="#0F80CC"/>
<stop offset="1" stop-color="#0F80CC"/>
</linearGradient>
<path id="path0_fill" d="M 28.1915 4.49138e-06C 19.983 4.49138e-06 13.3085 2.43838 8.19149 7.31299C 3.07447 12.1919 0.478723 18.5869 0.478723 26.4228C 0.478723 30.4837 1.1234 34.1863 2.39362 37.5791C 3.66383 40.9787 5.64043 44.1281 8.29787 46.9739C 10.9553 49.8222 16.2745 53.6914 24.2021 58.6106C 33.9298 64.5701 40.2957 69.4067 43.3511 73.1832C 46.4085 76.9565 47.9255 80.9108 47.9255 85.0334C 47.9255 90.5533 46.1149 94.9594 42.3936 98.2715C 38.666 101.585 33.6809 103.236 27.5 103.236C 20.9809 103.236 15.3021 100.93 10.4255 96.3498C 5.54894 91.7635 3.08723 85.6972 3.03191 78.0941L 0 78.0941L 0 105.691L 3.03191 105.691C 3.95745 103.078 5.2383 101.741 6.91489 101.741C 7.72128 101.741 9.61064 102.299 12.5532 103.343C 19.7128 105.899 25.5915 107.132 30.2128 107.132C 38.1766 107.132 44.9745 104.333 50.6383 98.6452C 56.2936 92.9594 59.1489 86.101 59.1489 78.0941C 59.1489 71.8854 57.2638 66.3615 53.5638 61.5465C 49.8638 56.7257 42.6681 51.1183 31.9149 44.6786C 22.6617 39.0995 16.6553 34.5557 13.883 31.0134C 11.1064 27.4763 9.68085 23.5636 9.68085 19.27C 9.68085 14.626 11.3809 10.8958 14.734 8.11368C 18.0872 5.32941 22.4809 3.95008 27.9787 3.95008C 34.166 3.95008 39.3234 5.79274 43.4043 9.50154C 47.4809 13.2167 49.8383 18.3651 50.5319 24.9816L 53.5638 24.9816L 53.5638 1.06759L 50.7447 1.06759C 50.4 2.28678 50.0809 3.06612 49.7872 3.41629C 49.5021 3.76432 48.9532 3.95008 48.1383 3.95008C 47.1574 3.95008 45.4085 3.53586 42.9255 2.72235C 37.6064 0.924536 32.7021 4.49138e-06 28.1915 4.49138e-06ZM 127.287 4.49138e-06C 117.285 4.49138e-06 108.204 2.36578 100 7.09947C 91.783 11.8246 85.2787 18.386 80.4787 26.7431C 75.6809 35.0995 73.2979 43.9746 73.2979 53.4328C 73.2979 66.1397 77.4426 77.4601 85.7979 87.3821C 94.1574 97.2981 104.174 103.477 115.798 105.851C 118.455 107.241 122.257 110.828 127.234 116.634C 132.843 123.186 137.587 127.912 141.489 130.726C 145.387 133.542 149.596 135.605 154.043 136.972C 158.494 138.332 163.306 139 168.511 139C 174.813 139 180.455 137.901 185.426 135.637L 184.309 132.861C 181.423 133.906 178.347 134.409 175.106 134.409C 170.709 134.409 166.264 132.954 161.809 130.032C 157.36 127.103 151.796 121.515 145.16 113.271C 142.04 109.321 139.887 106.829 138.67 105.851C 151.387 103.359 161.845 97.174 170 87.2753C 178.153 77.3809 182.234 66.0886 182.234 53.4328C 182.234 38.4056 176.906 25.7765 166.33 15.48C 155.745 5.18251 142.728 4.49138e-06 127.287 4.49138e-06ZM 189.149 4.49138e-06L 189.308 3.25615C 195.968 3.25615 199.698 5.22478 200.532 9.18127C 200.842 10.5969 200.985 13.2108 201.011 16.9747L 200.957 88.9835C 200.902 94.3616 200.138 97.7954 198.67 99.2857C 197.2 100.765 194.715 101.692 191.117 102.061L 190.958 105.318L 257.341 105.318L 259.043 88.9835L 256.011 88.9835C 255.145 93.4332 253.16 96.6208 250 98.4316C 246.832 100.256 241.23 101.154 233.138 101.154L 226.862 101.154C 219.581 101.154 215.368 98.5126 214.255 93.2005C 214.026 92.1495 213.947 91.0228 213.936 89.7842L 214.202 16.9747C 214.201 11.6051 214.877 8.00692 216.277 6.2454C 217.692 4.49028 220.243 3.5081 223.936 3.25615L 223.777 4.49138e-06L 189.149 4.49138e-06L 189.149 4.49138e-06ZM 128.351 3.95008C 139.632 3.95008 148.843 8.40876 155.957 17.4017C 163.07 26.3979 166.596 38.7276 166.596 54.3403C 166.596 69.1347 163.019 80.9806 155.851 89.8909C 148.683 98.7985 139.143 103.236 127.287 103.236C 115.898 103.236 106.662 98.6601 99.5745 89.4639C 92.4936 80.2677 88.9894 68.3282 88.9894 53.6463C 88.9894 38.5592 92.5362 26.482 99.6809 17.4551C 106.821 8.4378 116.383 3.95008 128.351 3.95008ZM 281.011 19.4301C 279.391 19.4301 278.157 19.9789 277.234 21.0849C 276.289 22.1866 276 23.5211 276.33 25.1417C 276.649 26.7138 277.532 28.0917 278.936 29.2519C 280.332 30.4111 281.838 31.0134 283.457 31.0134C 285.023 31.0134 286.217 30.4111 287.074 29.2519C 287.932 28.0917 288.194 26.7138 287.872 25.1417C 287.543 23.5211 286.689 22.1866 285.372 21.0849C 284.04 19.9789 282.577 19.4301 281.011 19.4301ZM 324.787 30.4797C 322.036 41.1004 316.072 46.8479 306.915 47.7746L 307.021 50.8172L 317.713 50.8172L 317.5 86.7949C 317.517 92.946 317.704 97.0412 318.138 99.1256C 319.191 104.116 322.438 106.652 327.872 106.652C 335.734 106.652 343.981 101.846 352.606 92.2396L 350 89.9977C 343.772 96.324 338.266 99.4992 333.457 99.4992C 330.502 99.4992 328.67 97.7937 327.979 94.4282C 327.789 93.6108 327.713 92.6558 327.713 91.5457L 327.819 50.8172L 344.149 50.8172L 343.989 45.9597L 327.872 45.9597L 327.872 30.4797L 324.787 30.4797L 324.787 30.4797ZM 387.926 44.038C 378.791 44.038 371.362 48.4877 365.585 57.3295C 359.838 66.1862 358.06 75.9988 360.319 86.7949C 361.649 93.1187 364.298 98.0198 368.351 101.474C 372.398 104.927 377.532 106.652 383.67 106.652C 389.385 106.652 397.343 105.2 400.691 102.275C 404.049 99.3517 407.143 94.6159 410 88.1294L 407.713 85.7273C 403.155 94.1421 393.957 98.3783 387.021 98.3783C 377.485 98.3783 371.645 93.1279 369.468 82.6847C 369.185 81.3517 368.974 79.9197 368.83 78.4144C 380.174 76.6118 388.772 73.42 394.574 68.8061C 400.372 64.1896 406.194 59.2962 405.106 54.1267C 404.46 51.0548 402.87 48.6395 400.426 46.8138C 397.949 44.9888 391.519 44.038 387.926 44.038ZM 288.085 44.4117L 268.404 48.9489L 268.404 52.472L 275.213 51.6179C 278.511 51.6179 280.451 53.1166 281.064 56.1018C 281.27 57.1008 281.4 58.5039 281.436 60.2654L 281.223 92.5599C 281.168 97.0288 280.674 99.6267 279.681 100.407C 278.679 101.188 276.036 101.581 271.755 101.581L 271.649 104.624L 302.872 104.624L 302.819 101.581C 298.481 101.581 295.668 101.237 294.415 100.567C 293.183 99.9004 292.334 98.6877 291.968 96.8303C 291.685 95.4917 291.562 93.1853 291.543 89.9977L 291.649 44.4117L 288.085 44.4117L 288.085 44.4117ZM 382.926 50.3902C 384.826 50.3902 386.662 51.1266 388.511 52.5787C 390.334 54.0258 391.445 55.6348 391.809 57.3829C 393.589 65.9687 386.004 71.9044 368.936 75.2116C 368.449 68.9511 369.53 63.2679 372.287 58.1302C 375.023 52.9974 378.587 50.3902 382.926 50.3902Z"/>
<path id="path1_fill" d="M 111.632 8.72803e-08L 12.1255 8.72803e-08C 5.4565 8.72803e-08 0 5.4575 0 12.1262L 0 121.863C 0 128.531 5.4565 133.988 12.1255 133.988L 77.6628 133.988C 76.9189 101.379 88.0545 38.0942 111.632 8.72803e-08Z"/>
<path id="path2_fill" d="M 104.48 4.6875e-07L 8.58887 4.6875e-07C 3.8535 4.6875e-07 -9.15527e-08 3.8525 -9.15527e-08 8.58875L -9.15527e-08 110.319C 21.7173 101.984 54.3122 94.792 76.8496 95.1186C 81.3785 71.4377 94.689 25.0282 104.48 4.6875e-07L 104.48 4.6875e-07Z"/>
<path id="path3_fill" d="M 63.8398 3.44498C 57.0248 -2.63252 48.7735 -0.191272 40.6298 7.03623C 39.421 8.10998 38.2148 9.30123 37.0148 10.5737C 23.0835 25.3525 10.1523 52.7275 6.13478 73.6337C 7.69978 76.8075 8.92228 80.8575 9.72728 83.9512C 9.93353 84.745 10.1198 85.49 10.2685 86.1237C 10.6223 87.6236 10.8123 88.5962 10.8123 88.5962C 10.8123 88.5962 10.6873 88.1236 10.1748 86.6375C 10.0773 86.3525 9.96853 86.0412 9.83978 85.675C 9.78478 85.5237 9.70853 85.34 9.62478 85.1437C 8.71603 83.0312 6.20228 78.5725 5.09603 76.6312C 4.14978 79.4225 3.31353 82.0337 2.61353 84.3962C 5.80728 90.2397 7.75353 100.254 7.75353 100.254C 7.75353 100.254 7.58478 99.605 6.78228 97.3399C 6.06978 95.3365 2.52103 89.1187 1.6804 87.6651C 0.242403 92.9736 -0.328965 96.5576 0.186285 97.4302C 1.18666 99.1211 2.13941 102.039 2.97603 105.265C 4.86603 112.534 6.17978 121.382 6.17978 121.382C 6.17978 121.382 6.22228 121.969 6.29353 122.871C 6.03103 128.975 6.18853 135.304 6.66103 141.024C 7.28728 148.596 8.46603 155.101 9.96853 158.582L 10.9885 158.026C 8.78228 151.167 7.88603 142.179 8.27853 131.812C 8.87228 115.967 12.5185 96.8589 19.256 76.9425C 30.6385 46.8775 46.431 22.755 60.8848 11.235C 47.711 23.1325 29.881 61.6437 24.5435 75.905C 18.5673 91.875 14.3323 106.861 11.7798 121.22C 16.1835 107.759 30.4223 101.973 30.4223 101.973C 30.4223 101.973 37.406 93.3599 45.5673 81.055C 40.6785 82.17 32.651 84.0787 29.9623 85.2087C 25.996 86.8725 24.9273 87.44 24.9273 87.44C 24.9273 87.44 37.7748 79.6162 48.7973 76.0737C 63.956 52.1987 80.471 18.2812 63.8398 3.44498"/>
</defs>
</svg>
